<?xml version="1.0" encoding="UTF-8"?> <!-- Generator: Adobe Illustrator 22.1.0, SVG Export Plug-In . SVG Version: 6.00 Build 0) --> <svg xmlns="http://www.w3.org/2000/svg" xmlns:xlink="http://www.w3.org/1999/xlink" id="Layer_1" x="0px" y="0px" viewBox="0 0 3000 200" style="enable-background:new 0 0 3000 200;" xml:space="preserve"> <style type="text/css"> .st0{fill:none;} .st1{fill:#FFFFFF;} </style> <g> <line class="st0" x1="0.6" y1="136.5" x2="1600" y2="136.5"></line> <path d="M1600,137.1H0.6c-0.3,0-0.6-0.3-0.6-0.6s0.3-0.6,0.6-0.6H1600c0.3,0,0.6,0.3,0.6,0.6S1600.3,137.1,1600,137.1z"></path> </g> <g> <line class="st0" x1="0.6" y1="98.3" x2="1600" y2="98.3"></line> <path d="M1600,98.9H0.6c-0.3,0-0.6-0.3-0.6-0.6s0.3-0.6,0.6-0.6H1600c0.3,0,0.6,0.3,0.6,0.6S1600.4,98.9,1600,98.9z"></path> </g> <g> <g> <polygon points="28.4,136 28.4,136 29,137 30.6,136 90.7,98.9 90.7,98.8 90.1,97.9 88.6,98.8 "></polygon> </g> </g> <g> <g> <polygon points="128.4,136 128.4,136 129,137 130.6,136 190.7,98.9 190.7,98.8 190.1,97.9 188.6,98.8 "></polygon> </g> </g> <g> <g> <polygon points="328.4,136 328.4,136 329,137 330.6,136 390.7,98.9 390.7,98.8 390.1,97.9 388.6,98.8 "></polygon> </g> </g> <g> <g> <polygon points="528.4,136 528.4,136 529,137 530.6,136 590.7,98.9 590.7,98.8 590.1,97.9 588.6,98.8 "></polygon> </g> </g> <g> <g> <polygon points="728.4,136 728.4,136 729,137 730.6,136 790.7,98.9 790.7,98.8 790.1,97.9 788.6,98.8 "></polygon> </g> </g> <g> <g> <polygon points="928.4,136 928.4,136 929,137 930.6,136 990.7,98.9 990.7,98.8 990.1,97.9 988.6,98.8 "></polygon> </g> </g> <g> <g> <polygon points="1128.4,136 1128.4,136 1129,137 1130.6,136 1190.7,98.9 1190.7,98.8 1190.1,97.9 1188.6,98.8 "></polygon> </g> </g> <g> <g> <polygon points="1328.4,136 1328.4,136 1329,137 1330.6,136 1390.7,98.9 1390.7,98.8 1390.1,97.9 1388.6,98.8 "></polygon> </g> </g> <g> <g> <polygon points="1528.4,136 1528.4,136 1529,137 1530.6,136 1590.7,98.9 1590.7,98.8 1590.1,97.9 1588.6,98.8 "></polygon> </g> </g> <g> <g> <polygon points="228.4,136 228.4,136 229,137 230.6,136 290.7,98.9 290.7,98.8 290.1,97.9 288.6,98.8 "></polygon> </g> </g> <g> <g> <polygon points="428.4,136 428.4,136 429,137 430.6,136 490.7,98.9 490.7,98.8 490.1,97.9 488.6,98.8 "></polygon> </g> </g> <g> <g> <polygon points="628.4,136 628.4,136 629,137 630.6,136 690.7,98.9 690.7,98.8 690.1,97.9 688.6,98.8 "></polygon> </g> </g> <g> <g> <polygon points="828.4,136 828.4,136 829,137 830.6,136 890.7,98.9 890.7,98.8 890.1,97.9 888.6,98.8 "></polygon> </g> </g> <g> <g> <polygon points="1028.4,136 1028.4,136 1029,137 1030.6,136 1090.7,98.9 1090.7,98.8 1090.1,97.9 1088.6,98.8 "></polygon> </g> </g> <g> <g> <polygon points="1228.4,136 1228.4,136 1229,137 1230.6,136 1290.7,98.9 1290.7,98.8 1290.1,97.9 1288.6,98.8 "></polygon> </g> </g> <g> <g> <polygon points="1428.4,136 1428.4,136 1429,137 1430.6,136 1490.7,98.9 1490.7,98.8 1490.1,97.9 1488.6,98.8 "></polygon> </g> </g> <g> <g> <g> <polygon class="st1" points="0.9,68.3 0.9,112.9 34,125.6 67.2,112.9 67.2,68.3 34,55 "></polygon> </g> <g> <path d="M34,126.2l-33.8-13V67.8L34,54.3l33.8,13.5v45.4L34,126.2z M1.5,112.4l32.6,12.5l32.6-12.5V68.6l-32.6-13l-32.6,13V112.4 z"></path> </g> </g> <g> <g> <polyline class="st1" points="0.9,68.3 34,81.2 67.2,68.3 34,81.2 34,125.6 "></polyline> </g> <g> <polygon points="34.6,125.6 33.4,125.6 33.4,81.7 0.7,68.9 1.1,67.7 34,80.6 67,67.7 67.4,68.9 34.6,81.7 "></polygon> </g> </g> <g> <g> <polygon class="st1" points="53.1,62.6 21.1,76.2 20.7,86.7 14.1,84.3 14.3,73.6 47,60.2 "></polygon> </g> <g> <path d="M21.2,87.5l-7.7-2.9l0.2-11.5L47,59.5l7.6,3.1l-33,13.9L21.2,87.5z M14.6,83.8l5.5,2.1l0.3-10.1l31.1-13.1L47,60.8 L14.9,73.9L14.6,83.8z"></path> </g> </g> </g> <g> <g> <g> <polygon class="st1" points="200.9,68.3 200.9,112.9 234,125.6 267.2,112.9 267.2,68.3 234,55 "></polygon> </g> <g> <path d="M234,126.2l-33.8-12.9V67.8L234,54.3l33.8,13.5v45.4L234,126.2z M201.5,112.4l32.6,12.5l32.6-12.5V68.6l-32.6-13 l-32.6,13V112.4z"></path> </g> </g> <g> <g> <polyline class="st1" points="200.9,68.3 234,81.2 267.2,68.3 234,81.2 234,125.6 "></polyline> </g> <g> <polygon points="234.6,125.6 233.4,125.6 233.4,81.7 200.7,68.9 201.1,67.7 234,80.6 267,67.7 267.4,68.9 234.6,81.7 "></polygon> </g> </g> <g> <g> <polygon class="st1" points="253.1,62.6 221.1,76.2 220.7,86.7 214.1,84.3 214.3,73.6 247,60.2 "></polygon> </g> <g> <path d="M221.2,87.5l-7.7-2.9l0.2-11.5L247,59.5l7.6,3.1l-33,13.9L221.2,87.5z M214.6,83.8l5.5,2.1l0.3-10.1l31.1-13.1l-4.6-1.8 L214.7,74L214.6,83.8z"></path> </g> </g> </g> <g> <g> <g> <polygon class="st1" points="400.9,68.3 400.9,112.9 434,125.6 467.2,112.9 467.2,68.3 434,55 "></polygon> </g> <g> <path d="M434,126.2l-33.8-12.9V67.8L434,54.3l33.8,13.5v45.4L434,126.2z M401.5,112.4l32.6,12.5l32.6-12.5V68.6l-32.6-13 l-32.6,13V112.4z"></path> </g> </g> <g> <g> <polyline class="st1" points="400.9,68.3 434,81.2 467.2,68.3 434,81.2 434,125.6 "></polyline> </g> <g> <polygon points="434.6,125.6 433.4,125.6 433.4,81.7 400.7,68.9 401.1,67.7 434,80.6 467,67.7 467.4,68.9 434.6,81.7 "></polygon> </g> </g> <g> <g> <polygon class="st1" points="453.1,62.6 421.1,76.2 420.7,86.7 414.1,84.3 414.3,73.6 447,60.2 "></polygon> </g> <g> <path d="M421.2,87.5l-7.7-2.9l0.2-11.5L447,59.5l7.6,3.1l-33,13.9L421.2,87.5z M414.6,83.8l5.5,2.1l0.3-10.1l31.1-13.1l-4.6-1.8 L414.7,74L414.6,83.8z"></path> </g> </g> </g> <g> <g> <g> <polygon class="st1" points="600.9,68.3 600.9,112.9 634,125.6 667.2,112.9 667.2,68.3 634,55 "></polygon> </g> <g> <path d="M634,126.2l-33.8-12.9V67.8L634,54.3l33.8,13.5v45.4L634,126.2z M601.5,112.4l32.6,12.5l32.6-12.5V68.6l-32.6-13 l-32.6,13V112.4z"></path> </g> </g> <g> <g> <polyline class="st1" points="600.9,68.3 634,81.2 667.2,68.3 634,81.2 634,125.6 "></polyline> </g> <g> <polygon points="634.6,125.6 633.4,125.6 633.4,81.7 600.7,68.9 601.1,67.7 634,80.6 667,67.7 667.4,68.9 634.6,81.7 "></polygon> </g> </g> <g> <g> <polygon class="st1" points="653.1,62.6 621.1,76.2 620.7,86.7 614.1,84.3 614.3,73.6 647,60.2 "></polygon> </g> <g> <path d="M621.2,87.5l-7.7-2.9l0.2-11.5L647,59.5l7.6,3.1l-33,13.9L621.2,87.5z M614.6,83.8l5.5,2.1l0.3-10.1l31.1-13.1l-4.6-1.8 L614.7,74L614.6,83.8z"></path> </g> </g> </g> <g> <g> <g> <polygon class="st1" points="800.9,68.3 800.9,112.9 834,125.6 867.2,112.9 867.2,68.3 834,55 "></polygon> </g> <g> <path d="M834,126.2l-33.8-12.9V67.8L834,54.3l33.8,13.5v45.4L834,126.2z M801.5,112.4l32.6,12.5l32.6-12.5V68.6l-32.6-13 l-32.6,13V112.4z"></path> </g> </g> <g> <g> <polyline class="st1" points="800.9,68.3 834,81.2 867.2,68.3 834,81.2 834,125.6 "></polyline> </g> <g> <polygon points="834.6,125.6 833.4,125.6 833.4,81.7 800.7,68.9 801.1,67.7 834,80.6 867,67.7 867.4,68.9 834.6,81.7 "></polygon> </g> </g> <g> <g> <polygon class="st1" points="853.1,62.6 821.1,76.2 820.7,86.7 814.1,84.3 814.3,73.6 847,60.2 "></polygon> </g> <g> <path d="M821.2,87.5l-7.7-2.9l0.2-11.5L847,59.5l7.6,3.1l-33,13.9L821.2,87.5z M814.6,83.8l5.5,2.1l0.3-10.1l31.1-13.1l-4.6-1.8 L814.7,74L814.6,83.8z"></path> </g> </g> </g> <g> <g> <g> <polygon class="st1" points="1000.9,68.3 1000.9,112.9 1034,125.6 1067.2,112.9 1067.2,68.3 1034,55 "></polygon> </g> <g> <path d="M1034,126.2l-33.8-12.9V67.8l33.8-13.5l33.8,13.5v45.4L1034,126.2z M1001.5,112.4l32.6,12.5l32.6-12.5V68.6l-32.6-13 l-32.6,13V112.4z"></path> </g> </g> <g> <g> <polyline class="st1" points="1000.9,68.3 1034,81.2 1067.2,68.3 1034,81.2 1034,125.6 "></polyline> </g> <g> <polygon points="1034.6,125.6 1033.4,125.6 1033.4,81.7 1000.7,68.9 1001.1,67.7 1034,80.6 1067,67.7 1067.4,68.9 1034.6,81.7 "></polygon> </g> </g> <g> <g> <polygon class="st1" points="1053.1,62.6 1021.1,76.2 1020.7,86.7 1014.1,84.3 1014.3,73.6 1047,60.2 "></polygon> </g> <g> <path d="M1021.2,87.5l-7.7-2.9l0.2-11.5l33.3-13.6l7.6,3.1l-33,13.9L1021.2,87.5z M1014.6,83.8l5.5,2.1l0.3-10.1l31.1-13.1 l-4.6-1.8L1014.7,74L1014.6,83.8z"></path> </g> </g> </g> <g> <g> <g> <polygon class="st1" points="1200.9,68.3 1200.9,112.9 1234,125.6 1267.2,112.9 1267.2,68.3 1234,55 "></polygon> </g> <g> <path d="M1234,126.2l-33.8-12.9V67.8l33.8-13.5l33.8,13.5v45.4L1234,126.2z M1201.5,112.4l32.6,12.5l32.6-12.5V68.6l-32.6-13 l-32.6,13V112.4z"></path> </g> </g> <g> <g> <polyline class="st1" points="1200.9,68.3 1234,81.2 1267.2,68.3 1234,81.2 1234,125.6 "></polyline> </g> <g> <polygon points="1234.6,125.6 1233.4,125.6 1233.4,81.7 1200.7,68.9 1201.1,67.7 1234,80.6 1267,67.7 1267.4,68.9 1234.6,81.7 "></polygon> </g> </g> <g> <g> <polygon class="st1" points="1253.1,62.6 1221.1,76.2 1220.7,86.7 1214.1,84.3 1214.3,73.6 1247,60.2 "></polygon> </g> <g> <path d="M1221.2,87.5l-7.7-2.9l0.2-11.5l33.3-13.6l7.6,3.1l-33,13.9L1221.2,87.5z M1214.6,83.8l5.5,2.1l0.3-10.1l31.1-13.1 l-4.6-1.8L1214.7,74L1214.6,83.8z"></path> </g> </g> </g> <g> <g> <g> <polygon class="st1" points="1400.9,68.3 1400.9,112.9 1434,125.6 1467.2,112.9 1467.2,68.3 1434,55 "></polygon> </g> <g> <path d="M1434,126.2l-33.8-12.9V67.8l33.8-13.5l33.8,13.5v45.4L1434,126.2z M1401.5,112.4l32.6,12.5l32.6-12.5V68.6l-32.6-13 l-32.6,13V112.4z"></path> </g> </g> <g> <g> <polyline class="st1" points="1400.9,68.3 1434,81.2 1467.2,68.3 1434,81.2 1434,125.6 "></polyline> </g> <g> <polygon points="1434.6,125.6 1433.4,125.6 1433.4,81.7 1400.7,68.9 1401.1,67.7 1434,80.6 1467,67.7 1467.4,68.9 1434.6,81.7 "></polygon> </g> </g> <g> <g> <polygon class="st1" points="1453.1,62.6 1421.1,76.2 1420.7,86.7 1414.1,84.3 1414.3,73.6 1447,60.2 "></polygon> </g> <g> <path d="M1421.2,87.5l-7.7-2.9l0.2-11.5l33.3-13.6l7.6,3.1l-33,13.9L1421.2,87.5z M1414.6,83.8l5.5,2.1l0.3-10.1l31.1-13.1 l-4.6-1.8L1414.7,74L1414.6,83.8z"></path> </g> </g> </g> <g> <line class="st0" x1="1601.2" y1="136.5" x2="3200.6" y2="136.5"></line> <path d="M3200.6,137.1H1601.2c-0.3,0-0.6-0.3-0.6-0.6s0.3-0.6,0.6-0.6h1599.4c0.3,0,0.6,0.3,0.6,0.6S3201,137.1,3200.6,137.1z"></path> </g> <g> <line class="st0" x1="1601.3" y1="98.3" x2="3200.7" y2="98.3"></line> <path d="M3200.7,98.9H1601.3c-0.3,0-0.6-0.3-0.6-0.6s0.3-0.6,0.6-0.6h1599.4c0.3,0,0.6,0.3,0.6,0.6S3201,98.9,3200.7,98.9z"></path> </g> <g> <g> <polygon points="1629,136 1629,136 1629.6,137 1631.2,136 1691.3,98.9 1691.3,98.8 1690.7,97.9 1689.2,98.8 "></polygon> </g> </g> <g> <g> <polygon points="1729,136 1729,136 1729.6,137 1731.2,136 1791.3,98.9 1791.3,98.8 1790.7,97.9 1789.2,98.8 "></polygon> </g> </g> <g> <g> <polygon points="1929,136 1929,136 1929.6,137 1931.2,136 1991.3,98.9 1991.3,98.8 1990.7,97.9 1989.2,98.8 "></polygon> </g> </g> <g> <g> <polygon points="2129,136 2129,136 2129.6,137 2131.2,136 2191.3,98.9 2191.3,98.8 2190.7,97.9 2189.2,98.8 "></polygon> </g> </g> <g> <g> <polygon points="2329,136 2329,136 2329.6,137 2331.2,136 2391.3,98.9 2391.3,98.8 2390.7,97.9 2389.2,98.8 "></polygon> </g> </g> <g> <g> <polygon points="2529,136 2529,136 2529.6,137 2531.2,136 2591.3,98.9 2591.3,98.8 2590.7,97.9 2589.2,98.8 "></polygon> </g> </g> <g> <g> <polygon points="2729,136 2729,136 2729.6,137 2731.2,136 2791.3,98.9 2791.3,98.8 2790.7,97.9 2789.2,98.8 "></polygon> </g> </g> <g> <g> <polygon points="2929,136 2929,136 2929.6,137 2931.2,136 2991.3,98.9 2991.3,98.8 2990.7,97.9 2989.2,98.8 "></polygon> </g> </g> <g> <g> <polygon points="3129,136 3129,136 3129.6,137 3131.2,136 3191.3,98.9 3191.3,98.8 3190.7,97.9 3189.2,98.8 "></polygon> </g> </g> <g> <g> <polygon points="1829,136 1829,136 1829.6,137 1831.2,136 1891.3,98.9 1891.3,98.8 1890.7,97.9 1889.2,98.8 "></polygon> </g> </g> <g> <g> <polygon points="2029,136 2029,136 2029.6,137 2031.2,136 2091.3,98.9 2091.3,98.8 2090.7,97.9 2089.2,98.8 "></polygon> </g> </g> <g> <g> <polygon points="2229,136 2229,136 2229.6,137 2231.2,136 2291.3,98.9 2291.3,98.8 2290.7,97.9 2289.2,98.8 "></polygon> </g> </g> <g> <g> <polygon points="2429,136 2429,136 2429.6,137 2431.2,136 2491.3,98.9 2491.3,98.8 2490.7,97.9 2489.2,98.8 "></polygon> </g> </g> <g> <g> <polygon points="2629,136 2629,136 2629.6,137 2631.2,136 2691.3,98.9 2691.3,98.8 2690.7,97.9 2689.2,98.8 "></polygon> </g> </g> <g> <g> <polygon points="2829,136 2829,136 2829.6,137 2831.2,136 2891.3,98.9 2891.3,98.8 2890.7,97.9 2889.2,98.8 "></polygon> </g> </g> <g> <g> <polygon points="3029,136 3029,136 3029.6,137 3031.2,136 3091.3,98.9 3091.3,98.8 3090.7,97.9 3089.2,98.8 "></polygon> </g> </g> <g> <g> <g> <polygon class="st1" points="1601.5,68.3 1601.5,112.9 1634.6,125.6 1667.8,112.9 1667.8,68.3 1634.6,55 "></polygon> </g> <g> <path d="M1634.6,126.2l-33.8-12.9V67.8l33.8-13.5l33.8,13.5v45.4L1634.6,126.2z M1602.1,112.4l32.6,12.5l32.6-12.5V68.6l-32.6-13 l-32.6,13V112.4z"></path> </g> </g> <g> <g> <polyline class="st1" points="1601.5,68.3 1634.6,81.2 1667.8,68.3 1634.6,81.2 1634.6,125.6 "></polyline> </g> <g> <polygon points="1635.2,125.6 1634.1,125.6 1634.1,81.7 1601.3,68.9 1601.8,67.7 1634.6,80.6 1667.6,67.7 1668.1,68.9 1635.2,81.7 "></polygon> </g> </g> <g> <g> <polygon class="st1" points="1653.8,62.6 1621.7,76.2 1621.4,86.7 1614.7,84.3 1614.9,73.6 1647.7,60.2 "></polygon> </g> <g> <path d="M1621.8,87.5l-7.7-2.9l0.2-11.5l33.3-13.6l7.6,3.1l-33,13.9L1621.8,87.5z M1615.3,83.8l5.5,2.1l0.3-10.1l31.1-13.1 l-4.6-1.8L1615.4,74L1615.3,83.8z"></path> </g> </g> </g> <g> <g> <g> <polygon class="st1" points="1801.5,68.3 1801.5,112.9 1834.6,125.6 1867.8,112.9 1867.8,68.3 1834.6,55 "></polygon> </g> <g> <path d="M1834.6,126.2l-33.8-12.9V67.8l33.8-13.5l33.8,13.5v45.4L1834.6,126.2z M1802.1,112.4l32.6,12.5l32.6-12.5V68.6l-32.6-13 l-32.6,13V112.4z"></path> </g> </g> <g> <g> <polyline class="st1" points="1801.5,68.3 1834.6,81.2 1867.8,68.3 1834.6,81.2 1834.6,125.6 "></polyline> </g> <g> <polygon points="1835.2,125.6 1834.1,125.6 1834.1,81.7 1801.3,68.9 1801.8,67.7 1834.6,80.6 1867.6,67.7 1868.1,68.9 1835.2,81.7 "></polygon> </g> </g> <g> <g> <polygon class="st1" points="1853.8,62.6 1821.7,76.2 1821.4,86.7 1814.7,84.3 1814.9,73.6 1847.7,60.2 "></polygon> </g> <g> <path d="M1821.8,87.5l-7.7-2.9l0.2-11.5l33.3-13.6l7.6,3.1l-33,13.9L1821.8,87.5z M1815.3,83.8l5.5,2.1l0.3-10.1l31.1-13.1 l-4.6-1.8L1815.4,74L1815.3,83.8z"></path> </g> </g> </g> <g> <g> <g> <polygon class="st1" points="2001.5,68.3 2001.5,112.9 2034.6,125.6 2067.8,112.9 2067.8,68.3 2034.6,55 "></polygon> </g> <g> <path d="M2034.6,126.2l-33.8-12.9V67.8l33.8-13.5l33.8,13.5v45.4L2034.6,126.2z M2002.1,112.4l32.6,12.5l32.6-12.5V68.6l-32.6-13 l-32.6,13L2002.1,112.4L2002.1,112.4z"></path> </g> </g> <g> <g> <polyline class="st1" points="2001.5,68.3 2034.6,81.2 2067.8,68.3 2034.6,81.2 2034.6,125.6 "></polyline> </g> <g> <polygon points="2035.2,125.6 2034.1,125.6 2034.1,81.7 2001.3,68.9 2001.8,67.7 2034.6,80.6 2067.6,67.7 2068.1,68.9 2035.2,81.7 "></polygon> </g> </g> <g> <g> <polygon class="st1" points="2053.8,62.6 2021.7,76.2 2021.4,86.7 2014.7,84.3 2014.9,73.6 2047.7,60.2 "></polygon> </g> <g> <path d="M2021.8,87.5l-7.7-2.9l0.2-11.5l33.3-13.6l7.6,3.1l-33,13.9L2021.8,87.5z M2015.3,83.8l5.5,2.1l0.3-10.1l31.1-13.1 l-4.6-1.8L2015.4,74L2015.3,83.8z"></path> </g> </g> </g> <g> <g> <g> <polygon class="st1" points="2201.5,68.3 2201.5,112.9 2234.6,125.6 2267.8,112.9 2267.8,68.3 2234.6,55 "></polygon> </g> <g> <path d="M2234.6,126.2l-33.8-12.9V67.8l33.8-13.5l33.8,13.5v45.4L2234.6,126.2z M2202.1,112.4l32.6,12.5l32.6-12.5V68.6l-32.6-13 l-32.6,13V112.4z"></path> </g> </g> <g> <g> <polyline class="st1" points="2201.5,68.3 2234.6,81.2 2267.8,68.3 2234.6,81.2 2234.6,125.6 "></polyline> </g> <g> <polygon points="2235.2,125.6 2234.1,125.6 2234.1,81.7 2201.3,68.9 2201.8,67.7 2234.6,80.6 2267.6,67.7 2268.1,68.9 2235.2,81.7 "></polygon> </g> </g> <g> <g> <polygon class="st1" points="2253.8,62.6 2221.7,76.2 2221.4,86.7 2214.7,84.3 2214.9,73.6 2247.7,60.2 "></polygon> </g> <g> <path d="M2221.8,87.5l-7.7-2.9l0.2-11.5l33.3-13.6l7.6,3.1l-33,13.9L2221.8,87.5z M2215.3,83.8l5.5,2.1l0.3-10.1l31.1-13.1 l-4.6-1.8L2215.4,74L2215.3,83.8z"></path> </g> </g> </g> <g> <g> <g> <polygon class="st1" points="2401.5,68.3 2401.5,112.9 2434.6,125.6 2467.8,112.9 2467.8,68.3 2434.6,55 "></polygon> </g> <g> <path d="M2434.6,126.2l-33.8-12.9V67.8l33.8-13.5l33.8,13.5v45.4L2434.6,126.2z M2402.1,112.4l32.6,12.5l32.6-12.5V68.6l-32.6-13 l-32.6,13V112.4z"></path> </g> </g> <g> <g> <polyline class="st1" points="2401.5,68.3 2434.6,81.2 2467.8,68.3 2434.6,81.2 2434.6,125.6 "></polyline> </g> <g> <polygon points="2435.2,125.6 2434.1,125.6 2434.1,81.7 2401.3,68.9 2401.8,67.7 2434.6,80.6 2467.6,67.7 2468.1,68.9 2435.2,81.7 "></polygon> </g> </g> <g> <g> <polygon class="st1" points="2453.8,62.6 2421.7,76.2 2421.4,86.7 2414.7,84.3 2414.9,73.6 2447.7,60.2 "></polygon> </g> <g> <path d="M2421.8,87.5l-7.7-2.9l0.2-11.5l33.3-13.6l7.6,3.1l-33,13.9L2421.8,87.5z M2415.3,83.8l5.5,2.1l0.3-10.1l31.1-13.1 l-4.6-1.8L2415.4,74L2415.3,83.8z"></path> </g> </g> </g> <g> <g> <g> <polygon class="st1" points="2601.5,68.3 2601.5,112.9 2634.6,125.6 2667.8,112.9 2667.8,68.3 2634.6,55 "></polygon> </g> <g> <path d="M2634.6,126.2l-33.8-12.9V67.8l33.8-13.5l33.8,13.5v45.4L2634.6,126.2z M2602.1,112.4l32.6,12.5l32.6-12.5V68.6l-32.6-13 l-32.6,13V112.4z"></path> </g> </g> <g> <g> <polyline class="st1" points="2601.5,68.3 2634.6,81.2 2667.8,68.3 2634.6,81.2 2634.6,125.6 "></polyline> </g> <g> <polygon points="2635.2,125.6 2634.1,125.6 2634.1,81.7 2601.3,68.9 2601.8,67.7 2634.6,80.6 2667.6,67.7 2668.1,68.9 2635.2,81.7 "></polygon> </g> </g> <g> <g> <polygon class="st1" points="2653.8,62.6 2621.7,76.2 2621.4,86.7 2614.7,84.3 2614.9,73.6 2647.7,60.2 "></polygon> </g> <g> <path d="M2621.8,87.5l-7.7-2.9l0.2-11.5l33.3-13.6l7.6,3.1l-33,13.9L2621.8,87.5z M2615.3,83.8l5.5,2.1l0.3-10.1l31.1-13.1 l-4.6-1.8L2615.4,74L2615.3,83.8z"></path> </g> </g> </g> <g> <g> <g> <polygon class="st1" points="2801.5,68.3 2801.5,112.9 2834.6,125.6 2867.8,112.9 2867.8,68.3 2834.6,55 "></polygon> </g> <g> <path d="M2834.6,126.2l-33.8-12.9V67.8l33.8-13.5l33.8,13.5v45.4L2834.6,126.2z M2802.1,112.4l32.6,12.5l32.6-12.5V68.6l-32.6-13 l-32.6,13V112.4z"></path> </g> </g> <g> <g> <polyline class="st1" points="2801.5,68.3 2834.6,81.2 2867.8,68.3 2834.6,81.2 2834.6,125.6 "></polyline> </g> <g> <polygon points="2835.2,125.6 2834.1,125.6 2834.1,81.7 2801.3,68.9 2801.8,67.7 2834.6,80.6 2867.6,67.7 2868.1,68.9 2835.2,81.7 "></polygon> </g> </g> <g> <g> <polygon class="st1" points="2853.8,62.6 2821.7,76.2 2821.4,86.7 2814.7,84.3 2814.9,73.6 2847.7,60.2 "></polygon> </g> <g> <path d="M2821.8,87.5l-7.7-2.9l0.2-11.5l33.3-13.6l7.6,3.1l-33,13.9L2821.8,87.5z M2815.3,83.8l5.5,2.1l0.3-10.1l31.1-13.1 l-4.6-1.8L2815.4,74L2815.3,83.8z"></path> </g> </g> </g> <g> <g> <g> <polygon class="st1" points="3001.5,68.3 3001.5,112.9 3034.6,125.6 3067.8,112.9 3067.8,68.3 3034.6,55 "></polygon> </g> <g> <path d="M3034.6,126.2l-33.8-12.9V67.8l33.8-13.5l33.8,13.5v45.4L3034.6,126.2z M3002.1,112.4l32.6,12.5l32.6-12.5V68.6l-32.6-13 l-32.6,13V112.4z"></path> </g> </g> <g> <g> <polyline class="st1" points="3001.5,68.3 3034.6,81.2 3067.8,68.3 3034.6,81.2 3034.6,125.6 "></polyline> </g> <g> <polygon points="3035.2,125.6 3034.1,125.6 3034.1,81.7 3001.3,68.9 3001.8,67.7 3034.6,80.6 3067.6,67.7 3068.1,68.9 3035.2,81.7 "></polygon> </g> </g> <g> <g> <polygon class="st1" points="3053.8,62.6 3021.7,76.2 3021.4,86.7 3014.7,84.3 3014.9,73.6 3047.7,60.2 "></polygon> </g> <g> <path d="M3021.8,87.5l-7.7-2.9l0.2-11.5l33.3-13.6l7.6,3.1l-33,13.9L3021.8,87.5z M3015.3,83.8l5.5,2.1l0.3-10.1l31.1-13.1 l-4.6-1.8L3015.4,74L3015.3,83.8z"></path> </g> </g> </g> <rect x="1599.7" y="135.9" width="1.6" height="1.2"></rect> <rect x="1599.9" y="97.7" width="1.6" height="1.2"></rect> </svg> 