<?xml version="1.0" encoding="UTF-8"?> <!-- Generator: Adobe Illustrator 22.1.0, SVG Export Plug-In . SVG Version: 6.00 Build 0) --> <svg xmlns="http://www.w3.org/2000/svg" xmlns:xlink="http://www.w3.org/1999/xlink" id="Layer_1" x="0px" y="0px" viewBox="0 0 127.6 127.6" style="enable-background:new 0 0 127.6 127.6;" xml:space="preserve"> <style type="text/css"> .st0{fill:#F7B702;} </style> <g> <g> <path class="st0" d="M79.6,57.8c0.6,4.7-15.5,10.5-17.2,9.3l0,0c0.6-0.6,0.6-1.7-0.1-2.4c-0.6-0.7-1.6-0.8-2.3-0.3 c-0.8,0.6-0.9,1.7-0.3,2.5c0.2,0.3,0.5,0.5,0.9,0.6c0.1,0,0.2,0.1,0.2,0.3c0,2.2,5.2,10.8,17.8,8.9c0.3-0.1,0.3,0.3,0.2,0.5 c-4.6,6.7-16.4,8.8-25,2.8c-9.1-6.2-10.3-18.7-7.2-23.3c0.2-0.2,0.5-0.3,0.5,0c0.4,2,0.6,3.1,1.7,5.2c0.1,0.2,0.4,0.1,0.3-0.1 c-1-4.6,0.1-10,3.6-13.9c0.8-0.9,1.7-1.6,2.6-2.3c0.2-0.2,0.5,0.1,0.4,0.3c-0.9,2.2-1.3,4.6-1.1,6.9c0,0.3,0.4,0.4,0.5,0.1 c2.1-4.1,5.2-7.6,10.1-8.7c1.2-0.2,2.3-0.4,3.4-0.3c0.3,0,0.4,0.4,0.1,0.5c-2,1.2-3.5,3.2-4.2,5.1c-0.1,0.3,0.1,0.5,0.3,0.4 c4-2,8.8-2.2,13.1-0.4c1.1,0.5,2.1,1,3,1.7c0.2,0.2,0.1,0.5-0.2,0.5c-1.7-0.2-4.8,0.1-6.3,0.9C73.1,53.5,78.6,53.8,79.6,57.8z"></path> </g> <g> <circle class="st0" cx="69.6" cy="69.8" r="1.5"></circle> </g> </g> </svg> 