<?xml version="1.0" encoding="UTF-8"?> <!-- Generator: Adobe Illustrator 22.1.0, SVG Export Plug-In . SVG Version: 6.00 Build 0) --> <svg xmlns="http://www.w3.org/2000/svg" xmlns:xlink="http://www.w3.org/1999/xlink" id="Layer_1" x="0px" y="0px" viewBox="0 0 3000 200" style="enable-background:new 0 0 3000 200;" xml:space="preserve"> <style type="text/css"> .st0{fill:#FFFFFF;} .st1{fill:none;} </style> <g> <g> <circle class="st0" cx="16.7" cy="143.8" r="6.7"></circle> </g> <g> <path d="M16.7,151c-4,0-7.3-3.2-7.3-7.3s3.2-7.3,7.3-7.3s7.3,3.2,7.3,7.3S20.7,151,16.7,151z M16.7,137.7c-3.3,0-6.1,2.8-6.1,6.1 s2.8,6.1,6.1,6.1s6.1-2.8,6.1-6.1S20,137.7,16.7,137.7z"></path> </g> </g> <g> <g> <circle class="st0" cx="66.7" cy="143.8" r="6.7"></circle> </g> <g> <path d="M66.7,151c-4,0-7.3-3.2-7.3-7.3s3.2-7.3,7.3-7.3s7.3,3.2,7.3,7.3S70.7,151,66.7,151z M66.7,137.7c-3.3,0-6.1,2.8-6.1,6.1 s2.8,6.1,6.1,6.1c3.3,0,6.1-2.8,6.1-6.1S70,137.7,66.7,137.7z"></path> </g> </g> <g> <g> <circle class="st0" cx="166.7" cy="143.8" r="6.7"></circle> </g> <g> <path d="M166.7,151c-4,0-7.3-3.2-7.3-7.3s3.2-7.3,7.3-7.3s7.3,3.2,7.3,7.3S170.7,151,166.7,151z M166.7,137.7 c-3.3,0-6.1,2.8-6.1,6.1s2.8,6.1,6.1,6.1s6.1-2.8,6.1-6.1S170,137.7,166.7,137.7z"></path> </g> </g> <g> <g> <circle class="st0" cx="266.7" cy="143.8" r="6.7"></circle> </g> <g> <path d="M266.7,151c-4,0-7.3-3.2-7.3-7.3s3.2-7.3,7.3-7.3s7.3,3.2,7.3,7.3S270.7,151,266.7,151z M266.7,137.7 c-3.3,0-6.1,2.8-6.1,6.1s2.8,6.1,6.1,6.1s6.1-2.8,6.1-6.1S270,137.7,266.7,137.7z"></path> </g> </g> <g> <g> <circle class="st0" cx="366.7" cy="143.8" r="6.7"></circle> </g> <g> <path d="M366.7,151c-4,0-7.3-3.2-7.3-7.3s3.2-7.3,7.3-7.3s7.3,3.2,7.3,7.3S370.7,151,366.7,151z M366.7,137.7 c-3.3,0-6.1,2.8-6.1,6.1s2.8,6.1,6.1,6.1s6.1-2.8,6.1-6.1S370,137.7,366.7,137.7z"></path> </g> </g> <g> <g> <circle class="st0" cx="466.7" cy="143.8" r="6.7"></circle> </g> <g> <path d="M466.7,151c-4,0-7.3-3.2-7.3-7.3s3.2-7.3,7.3-7.3s7.3,3.2,7.3,7.3S470.7,151,466.7,151z M466.7,137.7 c-3.3,0-6.1,2.8-6.1,6.1s2.8,6.1,6.1,6.1s6.1-2.8,6.1-6.1S470,137.7,466.7,137.7z"></path> </g> </g> <g> <g> <circle class="st0" cx="566.7" cy="143.8" r="6.7"></circle> </g> <g> <path d="M566.7,151c-4,0-7.3-3.2-7.3-7.3s3.2-7.3,7.3-7.3c4,0,7.3,3.2,7.3,7.3S570.7,151,566.7,151z M566.7,137.7 c-3.3,0-6.1,2.8-6.1,6.1s2.8,6.1,6.1,6.1s6.1-2.8,6.1-6.1S570,137.7,566.7,137.7z"></path> </g> </g> <g> <g> <circle class="st0" cx="666.7" cy="143.8" r="6.7"></circle> </g> <g> <path d="M666.7,151c-4,0-7.3-3.2-7.3-7.3s3.2-7.3,7.3-7.3c4,0,7.3,3.2,7.3,7.3S670.7,151,666.7,151z M666.7,137.7 c-3.3,0-6.1,2.8-6.1,6.1s2.8,6.1,6.1,6.1s6.1-2.8,6.1-6.1S670,137.7,666.7,137.7z"></path> </g> </g> <g> <g> <circle class="st0" cx="766.7" cy="143.8" r="6.7"></circle> </g> <g> <path d="M766.7,151c-4,0-7.3-3.2-7.3-7.3s3.2-7.3,7.3-7.3c4,0,7.3,3.2,7.3,7.3S770.7,151,766.7,151z M766.7,137.7 c-3.3,0-6.1,2.8-6.1,6.1s2.8,6.1,6.1,6.1s6.1-2.8,6.1-6.1S770,137.7,766.7,137.7z"></path> </g> </g> <g> <g> <circle class="st0" cx="866.7" cy="143.8" r="6.7"></circle> </g> <g> <path d="M866.7,151c-4,0-7.3-3.2-7.3-7.3s3.2-7.3,7.3-7.3c4,0,7.3,3.2,7.3,7.3S870.7,151,866.7,151z M866.7,137.7 c-3.3,0-6.1,2.8-6.1,6.1s2.8,6.1,6.1,6.1s6.1-2.8,6.1-6.1S870,137.7,866.7,137.7z"></path> </g> </g> <g> <g> <circle class="st0" cx="966.7" cy="143.8" r="6.7"></circle> </g> <g> <path d="M966.7,151c-4,0-7.3-3.2-7.3-7.3s3.2-7.3,7.3-7.3c4,0,7.3,3.2,7.3,7.3S970.7,151,966.7,151z M966.7,137.7 c-3.3,0-6.1,2.8-6.1,6.1s2.8,6.1,6.1,6.1s6.1-2.8,6.1-6.1S970,137.7,966.7,137.7z"></path> </g> </g> <g> <g> <circle class="st0" cx="1066.7" cy="143.8" r="6.7"></circle> </g> <g> <path d="M1066.7,151c-4,0-7.3-3.2-7.3-7.3s3.2-7.3,7.3-7.3s7.3,3.2,7.3,7.3S1070.7,151,1066.7,151z M1066.7,137.7 c-3.3,0-6.1,2.8-6.1,6.1s2.8,6.1,6.1,6.1s6.1-2.8,6.1-6.1S1070,137.7,1066.7,137.7z"></path> </g> </g> <g> <g> <circle class="st0" cx="1166.7" cy="143.8" r="6.7"></circle> </g> <g> <path d="M1166.7,151c-4,0-7.3-3.2-7.3-7.3s3.2-7.3,7.3-7.3s7.3,3.2,7.3,7.3S1170.7,151,1166.7,151z M1166.7,137.7 c-3.3,0-6.1,2.8-6.1,6.1s2.8,6.1,6.1,6.1s6.1-2.8,6.1-6.1S1170,137.7,1166.7,137.7z"></path> </g> </g> <g> <g> <circle class="st0" cx="1266.7" cy="143.8" r="6.7"></circle> </g> <g> <path d="M1266.7,151c-4,0-7.3-3.2-7.3-7.3s3.2-7.3,7.3-7.3s7.3,3.2,7.3,7.3S1270.7,151,1266.7,151z M1266.7,137.7 c-3.3,0-6.1,2.8-6.1,6.1s2.8,6.1,6.1,6.1s6.1-2.8,6.1-6.1S1270,137.7,1266.7,137.7z"></path> </g> </g> <g> <g> <circle class="st0" cx="1366.7" cy="143.8" r="6.7"></circle> </g> <g> <path d="M1366.7,151c-4,0-7.3-3.2-7.3-7.3s3.2-7.3,7.3-7.3s7.3,3.2,7.3,7.3S1370.7,151,1366.7,151z M1366.7,137.7 c-3.3,0-6.1,2.8-6.1,6.1s2.8,6.1,6.1,6.1s6.1-2.8,6.1-6.1S1370,137.7,1366.7,137.7z"></path> </g> </g> <g> <g> <circle class="st0" cx="1466.7" cy="143.8" r="6.7"></circle> </g> <g> <path d="M1466.7,151c-4,0-7.3-3.2-7.3-7.3s3.2-7.3,7.3-7.3s7.3,3.2,7.3,7.3S1470.7,151,1466.7,151z M1466.7,137.7 c-3.3,0-6.1,2.8-6.1,6.1s2.8,6.1,6.1,6.1s6.1-2.8,6.1-6.1S1470,137.7,1466.7,137.7z"></path> </g> </g> <g> <g> <circle class="st0" cx="1566.7" cy="143.8" r="6.7"></circle> </g> <g> <path d="M1566.7,151c-4,0-7.3-3.2-7.3-7.3s3.2-7.3,7.3-7.3s7.3,3.2,7.3,7.3S1570.7,151,1566.7,151z M1566.7,137.7 c-3.3,0-6.1,2.8-6.1,6.1s2.8,6.1,6.1,6.1s6.1-2.8,6.1-6.1S1570,137.7,1566.7,137.7z"></path> </g> </g> <g> <g> <circle class="st0" cx="116.7" cy="143.8" r="6.7"></circle> </g> <g> <path d="M116.7,151c-4,0-7.3-3.2-7.3-7.3s3.2-7.3,7.3-7.3s7.3,3.2,7.3,7.3S120.7,151,116.7,151z M116.7,137.7 c-3.3,0-6.1,2.8-6.1,6.1s2.8,6.1,6.1,6.1s6.1-2.8,6.1-6.1S120,137.7,116.7,137.7z"></path> </g> </g> <g> <g> <circle class="st0" cx="216.7" cy="143.8" r="6.7"></circle> </g> <g> <path d="M216.7,151c-4,0-7.3-3.2-7.3-7.3s3.2-7.3,7.3-7.3s7.3,3.2,7.3,7.3S220.7,151,216.7,151z M216.7,137.7 c-3.3,0-6.1,2.8-6.1,6.1s2.8,6.1,6.1,6.1s6.1-2.8,6.1-6.1S220,137.7,216.7,137.7z"></path> </g> </g> <g> <g> <circle class="st0" cx="316.7" cy="143.8" r="6.7"></circle> </g> <g> <path d="M316.7,151c-4,0-7.3-3.2-7.3-7.3s3.2-7.3,7.3-7.3s7.3,3.2,7.3,7.3S320.7,151,316.7,151z M316.7,137.7 c-3.3,0-6.1,2.8-6.1,6.1s2.8,6.1,6.1,6.1s6.1-2.8,6.1-6.1S320,137.7,316.7,137.7z"></path> </g> </g> <g> <g> <circle class="st0" cx="416.7" cy="143.8" r="6.7"></circle> </g> <g> <path d="M416.7,151c-4,0-7.3-3.2-7.3-7.3s3.2-7.3,7.3-7.3s7.3,3.2,7.3,7.3S420.7,151,416.7,151z M416.7,137.7 c-3.3,0-6.1,2.8-6.1,6.1s2.8,6.1,6.1,6.1s6.1-2.8,6.1-6.1S420,137.7,416.7,137.7z"></path> </g> </g> <g> <g> <circle class="st0" cx="516.7" cy="143.8" r="6.7"></circle> </g> <g> <path d="M516.7,151c-4,0-7.3-3.2-7.3-7.3s3.2-7.3,7.3-7.3c4,0,7.3,3.2,7.3,7.3S520.7,151,516.7,151z M516.7,137.7 c-3.3,0-6.1,2.8-6.1,6.1s2.8,6.1,6.1,6.1s6.1-2.8,6.1-6.1S520,137.7,516.7,137.7z"></path> </g> </g> <g> <g> <circle class="st0" cx="616.7" cy="143.8" r="6.7"></circle> </g> <g> <path d="M616.7,151c-4,0-7.3-3.2-7.3-7.3s3.2-7.3,7.3-7.3c4,0,7.3,3.2,7.3,7.3S620.7,151,616.7,151z M616.7,137.7 c-3.3,0-6.1,2.8-6.1,6.1s2.8,6.1,6.1,6.1s6.1-2.8,6.1-6.1S620,137.7,616.7,137.7z"></path> </g> </g> <g> <g> <circle class="st0" cx="716.7" cy="143.8" r="6.7"></circle> </g> <g> <path d="M716.7,151c-4,0-7.3-3.2-7.3-7.3s3.2-7.3,7.3-7.3c4,0,7.3,3.2,7.3,7.3S720.7,151,716.7,151z M716.7,137.7 c-3.3,0-6.1,2.8-6.1,6.1s2.8,6.1,6.1,6.1s6.1-2.8,6.1-6.1S720,137.7,716.7,137.7z"></path> </g> </g> <g> <g> <circle class="st0" cx="816.7" cy="143.8" r="6.7"></circle> </g> <g> <path d="M816.7,151c-4,0-7.3-3.2-7.3-7.3s3.2-7.3,7.3-7.3c4,0,7.3,3.2,7.3,7.3S820.7,151,816.7,151z M816.7,137.7 c-3.3,0-6.1,2.8-6.1,6.1s2.8,6.1,6.1,6.1s6.1-2.8,6.1-6.1S820,137.7,816.7,137.7z"></path> </g> </g> <g> <g> <circle class="st0" cx="916.7" cy="143.8" r="6.7"></circle> </g> <g> <path d="M916.7,151c-4,0-7.3-3.2-7.3-7.3s3.2-7.3,7.3-7.3c4,0,7.3,3.2,7.3,7.3S920.7,151,916.7,151z M916.7,137.7 c-3.3,0-6.1,2.8-6.1,6.1s2.8,6.1,6.1,6.1s6.1-2.8,6.1-6.1S920,137.7,916.7,137.7z"></path> </g> </g> <g> <g> <circle class="st0" cx="1016.7" cy="143.8" r="6.7"></circle> </g> <g> <path d="M1016.7,151c-4,0-7.3-3.2-7.3-7.3s3.2-7.3,7.3-7.3c4,0,7.3,3.2,7.3,7.3S1020.7,151,1016.7,151z M1016.7,137.7 c-3.3,0-6.1,2.8-6.1,6.1s2.8,6.1,6.1,6.1s6.1-2.8,6.1-6.1S1020,137.7,1016.7,137.7z"></path> </g> </g> <g> <g> <circle class="st0" cx="1116.7" cy="143.8" r="6.7"></circle> </g> <g> <path d="M1116.7,151c-4,0-7.3-3.2-7.3-7.3s3.2-7.3,7.3-7.3s7.3,3.2,7.3,7.3S1120.7,151,1116.7,151z M1116.7,137.7 c-3.3,0-6.1,2.8-6.1,6.1s2.8,6.1,6.1,6.1s6.1-2.8,6.1-6.1S1120,137.7,1116.7,137.7z"></path> </g> </g> <g> <g> <circle class="st0" cx="1216.7" cy="143.8" r="6.7"></circle> </g> <g> <path d="M1216.7,151c-4,0-7.3-3.2-7.3-7.3s3.2-7.3,7.3-7.3s7.3,3.2,7.3,7.3S1220.7,151,1216.7,151z M1216.7,137.7 c-3.3,0-6.1,2.8-6.1,6.1s2.8,6.1,6.1,6.1s6.1-2.8,6.1-6.1S1220,137.7,1216.7,137.7z"></path> </g> </g> <g> <g> <circle class="st0" cx="1316.7" cy="143.8" r="6.7"></circle> </g> <g> <path d="M1316.7,151c-4,0-7.3-3.2-7.3-7.3s3.2-7.3,7.3-7.3s7.3,3.2,7.3,7.3S1320.7,151,1316.7,151z M1316.7,137.7 c-3.3,0-6.1,2.8-6.1,6.1s2.8,6.1,6.1,6.1s6.1-2.8,6.1-6.1S1320,137.7,1316.7,137.7z"></path> </g> </g> <g> <g> <circle class="st0" cx="1416.7" cy="143.8" r="6.7"></circle> </g> <g> <path d="M1416.7,151c-4,0-7.3-3.2-7.3-7.3s3.2-7.3,7.3-7.3s7.3,3.2,7.3,7.3S1420.7,151,1416.7,151z M1416.7,137.7 c-3.3,0-6.1,2.8-6.1,6.1s2.8,6.1,6.1,6.1s6.1-2.8,6.1-6.1S1420,137.7,1416.7,137.7z"></path> </g> </g> <g> <g> <circle class="st0" cx="1516.7" cy="143.8" r="6.7"></circle> </g> <g> <path d="M1516.7,151c-4,0-7.3-3.2-7.3-7.3s3.2-7.3,7.3-7.3s7.3,3.2,7.3,7.3S1520.7,151,1516.7,151z M1516.7,137.7 c-3.3,0-6.1,2.8-6.1,6.1s2.8,6.1,6.1,6.1s6.1-2.8,6.1-6.1S1520,137.7,1516.7,137.7z"></path> </g> </g> <g> <g> <circle class="st0" cx="1617.3" cy="143.8" r="6.7"></circle> </g> <g> <path d="M1617.3,151c-4,0-7.3-3.2-7.3-7.3s3.2-7.3,7.3-7.3s7.3,3.2,7.3,7.3S1621.3,151,1617.3,151z M1617.3,137.7 c-3.3,0-6.1,2.8-6.1,6.1s2.8,6.1,6.1,6.1s6.1-2.8,6.1-6.1S1620.6,137.7,1617.3,137.7z"></path> </g> </g> <g> <g> <circle class="st0" cx="1667.3" cy="143.8" r="6.7"></circle> </g> <g> <path d="M1667.3,151c-4,0-7.3-3.2-7.3-7.3s3.2-7.3,7.3-7.3s7.3,3.2,7.3,7.3S1671.3,151,1667.3,151z M1667.3,137.7 c-3.3,0-6.1,2.8-6.1,6.1s2.8,6.1,6.1,6.1s6.1-2.8,6.1-6.1S1670.6,137.7,1667.3,137.7z"></path> </g> </g> <g> <g> <circle class="st0" cx="1767.3" cy="143.8" r="6.7"></circle> </g> <g> <path d="M1767.3,151c-4,0-7.3-3.2-7.3-7.3s3.2-7.3,7.3-7.3s7.3,3.2,7.3,7.3S1771.3,151,1767.3,151z M1767.3,137.7 c-3.3,0-6.1,2.8-6.1,6.1s2.8,6.1,6.1,6.1s6.1-2.8,6.1-6.1S1770.6,137.7,1767.3,137.7z"></path> </g> </g> <g> <g> <circle class="st0" cx="1867.3" cy="143.8" r="6.7"></circle> </g> <g> <path d="M1867.3,151c-4,0-7.3-3.2-7.3-7.3s3.2-7.3,7.3-7.3s7.3,3.2,7.3,7.3S1871.3,151,1867.3,151z M1867.3,137.7 c-3.3,0-6.1,2.8-6.1,6.1s2.8,6.1,6.1,6.1s6.1-2.8,6.1-6.1S1870.6,137.7,1867.3,137.7z"></path> </g> </g> <g> <g> <circle class="st0" cx="1967.3" cy="143.8" r="6.7"></circle> </g> <g> <path d="M1967.3,151c-4,0-7.3-3.2-7.3-7.3s3.2-7.3,7.3-7.3s7.3,3.2,7.3,7.3S1971.3,151,1967.3,151z M1967.3,137.7 c-3.3,0-6.1,2.8-6.1,6.1s2.8,6.1,6.1,6.1s6.1-2.8,6.1-6.1S1970.6,137.7,1967.3,137.7z"></path> </g> </g> <g> <g> <circle class="st0" cx="2067.3" cy="143.8" r="6.7"></circle> </g> <g> <path d="M2067.3,151c-4,0-7.3-3.2-7.3-7.3s3.2-7.3,7.3-7.3c4,0,7.3,3.2,7.3,7.3S2071.3,151,2067.3,151z M2067.3,137.7 c-3.3,0-6.1,2.8-6.1,6.1s2.8,6.1,6.1,6.1s6.1-2.8,6.1-6.1S2070.6,137.7,2067.3,137.7z"></path> </g> </g> <g> <g> <circle class="st0" cx="2167.3" cy="143.8" r="6.7"></circle> </g> <g> <path d="M2167.3,151c-4,0-7.3-3.2-7.3-7.3s3.2-7.3,7.3-7.3c4,0,7.3,3.2,7.3,7.3S2171.3,151,2167.3,151z M2167.3,137.7 c-3.3,0-6.1,2.8-6.1,6.1s2.8,6.1,6.1,6.1s6.1-2.8,6.1-6.1S2170.6,137.7,2167.3,137.7z"></path> </g> </g> <g> <g> <circle class="st0" cx="2267.3" cy="143.8" r="6.7"></circle> </g> <g> <path d="M2267.3,151c-4,0-7.3-3.2-7.3-7.3s3.2-7.3,7.3-7.3c4,0,7.3,3.2,7.3,7.3S2271.3,151,2267.3,151z M2267.3,137.7 c-3.3,0-6.1,2.8-6.1,6.1s2.8,6.1,6.1,6.1s6.1-2.8,6.1-6.1S2270.6,137.7,2267.3,137.7z"></path> </g> </g> <g> <g> <circle class="st0" cx="2367.3" cy="143.8" r="6.7"></circle> </g> <g> <path d="M2367.3,151c-4,0-7.3-3.2-7.3-7.3s3.2-7.3,7.3-7.3c4,0,7.3,3.2,7.3,7.3S2371.3,151,2367.3,151z M2367.3,137.7 c-3.3,0-6.1,2.8-6.1,6.1s2.8,6.1,6.1,6.1s6.1-2.8,6.1-6.1S2370.6,137.7,2367.3,137.7z"></path> </g> </g> <g> <g> <circle class="st0" cx="2467.3" cy="143.8" r="6.7"></circle> </g> <g> <path d="M2467.3,151c-4,0-7.3-3.2-7.3-7.3s3.2-7.3,7.3-7.3c4,0,7.3,3.2,7.3,7.3S2471.3,151,2467.3,151z M2467.3,137.7 c-3.3,0-6.1,2.8-6.1,6.1s2.8,6.1,6.1,6.1s6.1-2.8,6.1-6.1S2470.6,137.7,2467.3,137.7z"></path> </g> </g> <g> <g> <circle class="st0" cx="2567.3" cy="143.8" r="6.7"></circle> </g> <g> <path d="M2567.3,151c-4,0-7.3-3.2-7.3-7.3s3.2-7.3,7.3-7.3c4,0,7.3,3.2,7.3,7.3S2571.3,151,2567.3,151z M2567.3,137.7 c-3.3,0-6.1,2.8-6.1,6.1s2.8,6.1,6.1,6.1s6.1-2.8,6.1-6.1S2570.6,137.7,2567.3,137.7z"></path> </g> </g> <g> <g> <circle class="st0" cx="2667.3" cy="143.8" r="6.7"></circle> </g> <g> <path d="M2667.3,151c-4,0-7.3-3.2-7.3-7.3s3.2-7.3,7.3-7.3c4,0,7.3,3.2,7.3,7.3S2671.3,151,2667.3,151z M2667.3,137.7 c-3.3,0-6.1,2.8-6.1,6.1s2.8,6.1,6.1,6.1s6.1-2.8,6.1-6.1S2670.6,137.7,2667.3,137.7z"></path> </g> </g> <g> <g> <circle class="st0" cx="2767.3" cy="143.8" r="6.7"></circle> </g> <g> <path d="M2767.3,151c-4,0-7.3-3.2-7.3-7.3s3.2-7.3,7.3-7.3c4,0,7.3,3.2,7.3,7.3S2771.3,151,2767.3,151z M2767.3,137.7 c-3.3,0-6.1,2.8-6.1,6.1s2.8,6.1,6.1,6.1s6.1-2.8,6.1-6.1S2770.6,137.7,2767.3,137.7z"></path> </g> </g> <g> <g> <circle class="st0" cx="2867.3" cy="143.8" r="6.7"></circle> </g> <g> <path d="M2867.3,151c-4,0-7.3-3.2-7.3-7.3s3.2-7.3,7.3-7.3c4,0,7.3,3.2,7.3,7.3S2871.3,151,2867.3,151z M2867.3,137.7 c-3.3,0-6.1,2.8-6.1,6.1s2.8,6.1,6.1,6.1s6.1-2.8,6.1-6.1S2870.6,137.7,2867.3,137.7z"></path> </g> </g> <g> <g> <circle class="st0" cx="2967.3" cy="143.8" r="6.7"></circle> </g> <g> <path d="M2967.3,151c-4,0-7.3-3.2-7.3-7.3s3.2-7.3,7.3-7.3c4,0,7.3,3.2,7.3,7.3S2971.3,151,2967.3,151z M2967.3,137.7 c-3.3,0-6.1,2.8-6.1,6.1s2.8,6.1,6.1,6.1s6.1-2.8,6.1-6.1S2970.6,137.7,2967.3,137.7z"></path> </g> </g> <g> <g> <circle class="st0" cx="3067.3" cy="143.8" r="6.7"></circle> </g> <g> <path d="M3067.3,151c-4,0-7.3-3.2-7.3-7.3s3.2-7.3,7.3-7.3c4,0,7.3,3.2,7.3,7.3S3071.3,151,3067.3,151z M3067.3,137.7 c-3.3,0-6.1,2.8-6.1,6.1s2.8,6.1,6.1,6.1s6.1-2.8,6.1-6.1S3070.6,137.7,3067.3,137.7z"></path> </g> </g> <g> <g> <circle class="st0" cx="3167.3" cy="143.8" r="6.7"></circle> </g> <g> <path d="M3167.3,151c-4,0-7.3-3.2-7.3-7.3s3.2-7.3,7.3-7.3c4,0,7.3,3.2,7.3,7.3S3171.3,151,3167.3,151z M3167.3,137.7 c-3.3,0-6.1,2.8-6.1,6.1s2.8,6.1,6.1,6.1s6.1-2.8,6.1-6.1S3170.6,137.7,3167.3,137.7z"></path> </g> </g> <g> <g> <circle class="st0" cx="1717.3" cy="143.8" r="6.7"></circle> </g> <g> <path d="M1717.3,151c-4,0-7.3-3.2-7.3-7.3s3.2-7.3,7.3-7.3s7.3,3.2,7.3,7.3S1721.3,151,1717.3,151z M1717.3,137.7 c-3.3,0-6.1,2.8-6.1,6.1s2.8,6.1,6.1,6.1s6.1-2.8,6.1-6.1S1720.6,137.7,1717.3,137.7z"></path> </g> </g> <g> <g> <circle class="st0" cx="1817.3" cy="143.8" r="6.7"></circle> </g> <g> <path d="M1817.3,151c-4,0-7.3-3.2-7.3-7.3s3.2-7.3,7.3-7.3s7.3,3.2,7.3,7.3S1821.3,151,1817.3,151z M1817.3,137.7 c-3.3,0-6.1,2.8-6.1,6.1s2.8,6.1,6.1,6.1s6.1-2.8,6.1-6.1S1820.6,137.7,1817.3,137.7z"></path> </g> </g> <g> <g> <circle class="st0" cx="1917.3" cy="143.8" r="6.7"></circle> </g> <g> <path d="M1917.3,151c-4,0-7.3-3.2-7.3-7.3s3.2-7.3,7.3-7.3s7.3,3.2,7.3,7.3S1921.3,151,1917.3,151z M1917.3,137.7 c-3.3,0-6.1,2.8-6.1,6.1s2.8,6.1,6.1,6.1s6.1-2.8,6.1-6.1S1920.6,137.7,1917.3,137.7z"></path> </g> </g> <g> <g> <circle class="st0" cx="2017.3" cy="143.8" r="6.7"></circle> </g> <g> <path d="M2017.3,151c-4,0-7.3-3.2-7.3-7.3s3.2-7.3,7.3-7.3s7.3,3.2,7.3,7.3S2021.3,151,2017.3,151z M2017.3,137.7 c-3.3,0-6.1,2.8-6.1,6.1s2.8,6.1,6.1,6.1s6.1-2.8,6.1-6.1S2020.6,137.7,2017.3,137.7z"></path> </g> </g> <g> <g> <circle class="st0" cx="2117.3" cy="143.8" r="6.7"></circle> </g> <g> <path d="M2117.3,151c-4,0-7.3-3.2-7.3-7.3s3.2-7.3,7.3-7.3c4,0,7.3,3.2,7.3,7.3S2121.3,151,2117.3,151z M2117.3,137.7 c-3.3,0-6.1,2.8-6.1,6.1s2.8,6.1,6.1,6.1s6.1-2.8,6.1-6.1S2120.6,137.7,2117.3,137.7z"></path> </g> </g> <g> <g> <circle class="st0" cx="2217.3" cy="143.8" r="6.7"></circle> </g> <g> <path d="M2217.3,151c-4,0-7.3-3.2-7.3-7.3s3.2-7.3,7.3-7.3c4,0,7.3,3.2,7.3,7.3S2221.3,151,2217.3,151z M2217.3,137.7 c-3.3,0-6.1,2.8-6.1,6.1s2.8,6.1,6.1,6.1s6.1-2.8,6.1-6.1S2220.6,137.7,2217.3,137.7z"></path> </g> </g> <g> <g> <circle class="st0" cx="2317.3" cy="143.8" r="6.7"></circle> </g> <g> <path d="M2317.3,151c-4,0-7.3-3.2-7.3-7.3s3.2-7.3,7.3-7.3c4,0,7.3,3.2,7.3,7.3S2321.3,151,2317.3,151z M2317.3,137.7 c-3.3,0-6.1,2.8-6.1,6.1s2.8,6.1,6.1,6.1s6.1-2.8,6.1-6.1S2320.6,137.7,2317.3,137.7z"></path> </g> </g> <g> <g> <circle class="st0" cx="2417.3" cy="143.8" r="6.7"></circle> </g> <g> <path d="M2417.3,151c-4,0-7.3-3.2-7.3-7.3s3.2-7.3,7.3-7.3c4,0,7.3,3.2,7.3,7.3S2421.3,151,2417.3,151z M2417.3,137.7 c-3.3,0-6.1,2.8-6.1,6.1s2.8,6.1,6.1,6.1s6.1-2.8,6.1-6.1S2420.6,137.7,2417.3,137.7z"></path> </g> </g> <g> <g> <circle class="st0" cx="2517.3" cy="143.8" r="6.7"></circle> </g> <g> <path d="M2517.3,151c-4,0-7.3-3.2-7.3-7.3s3.2-7.3,7.3-7.3c4,0,7.3,3.2,7.3,7.3S2521.3,151,2517.3,151z M2517.3,137.7 c-3.3,0-6.1,2.8-6.1,6.1s2.8,6.1,6.1,6.1s6.1-2.8,6.1-6.1S2520.6,137.7,2517.3,137.7z"></path> </g> </g> <g> <g> <circle class="st0" cx="2617.3" cy="143.8" r="6.7"></circle> </g> <g> <path d="M2617.3,151c-4,0-7.3-3.2-7.3-7.3s3.2-7.3,7.3-7.3c4,0,7.3,3.2,7.3,7.3S2621.3,151,2617.3,151z M2617.3,137.7 c-3.3,0-6.1,2.8-6.1,6.1s2.8,6.1,6.1,6.1s6.1-2.8,6.1-6.1S2620.6,137.7,2617.3,137.7z"></path> </g> </g> <g> <g> <circle class="st0" cx="2717.3" cy="143.8" r="6.7"></circle> </g> <g> <path d="M2717.3,151c-4,0-7.3-3.2-7.3-7.3s3.2-7.3,7.3-7.3c4,0,7.3,3.2,7.3,7.3S2721.3,151,2717.3,151z M2717.3,137.7 c-3.3,0-6.1,2.8-6.1,6.1s2.8,6.1,6.1,6.1s6.1-2.8,6.1-6.1S2720.6,137.7,2717.3,137.7z"></path> </g> </g> <g> <g> <circle class="st0" cx="2817.3" cy="143.8" r="6.7"></circle> </g> <g> <path d="M2817.3,151c-4,0-7.3-3.2-7.3-7.3s3.2-7.3,7.3-7.3c4,0,7.3,3.2,7.3,7.3S2821.3,151,2817.3,151z M2817.3,137.7 c-3.3,0-6.1,2.8-6.1,6.1s2.8,6.1,6.1,6.1s6.1-2.8,6.1-6.1S2820.6,137.7,2817.3,137.7z"></path> </g> </g> <g> <g> <circle class="st0" cx="2917.3" cy="143.8" r="6.7"></circle> </g> <g> <path d="M2917.3,151c-4,0-7.3-3.2-7.3-7.3s3.2-7.3,7.3-7.3c4,0,7.3,3.2,7.3,7.3S2921.3,151,2917.3,151z M2917.3,137.7 c-3.3,0-6.1,2.8-6.1,6.1s2.8,6.1,6.1,6.1s6.1-2.8,6.1-6.1S2920.6,137.7,2917.3,137.7z"></path> </g> </g> <g> <g> <circle class="st0" cx="3017.3" cy="143.8" r="6.7"></circle> </g> <g> <path d="M3017.3,151c-4,0-7.3-3.2-7.3-7.3s3.2-7.3,7.3-7.3c4,0,7.3,3.2,7.3,7.3S3021.3,151,3017.3,151z M3017.3,137.7 c-3.3,0-6.1,2.8-6.1,6.1s2.8,6.1,6.1,6.1s6.1-2.8,6.1-6.1S3020.6,137.7,3017.3,137.7z"></path> </g> </g> <g> <g> <circle class="st0" cx="3117.3" cy="143.8" r="6.7"></circle> </g> <g> <path d="M3117.3,151c-4,0-7.3-3.2-7.3-7.3s3.2-7.3,7.3-7.3c4,0,7.3,3.2,7.3,7.3S3121.3,151,3117.3,151z M3117.3,137.7 c-3.3,0-6.1,2.8-6.1,6.1s2.8,6.1,6.1,6.1s6.1-2.8,6.1-6.1S3120.6,137.7,3117.3,137.7z"></path> </g> </g> <g> <line class="st1" x1="1.7" y1="154.9" x2="3022.9" y2="154.9"></line> <path d="M3022.9,155.6H1.7c-0.6,0-1.1-0.3-1.1-0.6s0.6-0.6,1.1-0.6h3021.2c0.6,0,1.1,0.3,1.1,0.6S3023.4,155.6,3022.9,155.6z"></path> </g> <g> <line class="st1" x1="0.5" y1="152.7" x2="3021.7" y2="152.7"></line> <path d="M3021.7,153.3H0.5c-0.6,0-1.1-0.3-1.1-0.6s0.6-0.6,1.1-0.6h3021.2c0.6,0,1.1,0.3,1.1,0.6S3022.3,153.3,3021.7,153.3z"></path> </g> <g> <line class="st1" x1="-2.2" y1="134.7" x2="3023.5" y2="134.7"></line> <path d="M3023.5,135.3H-2.2c-0.6,0-1.1-0.3-1.1-0.6c0-0.3,0.6-0.6,1.1-0.6h3025.7c0.6,0,1.1,0.3,1.1,0.6 C3024.6,135,3024,135.3,3023.5,135.3z"></path> </g> </svg> 