<?xml version="1.0" encoding="UTF-8"?> <!-- Generator: Adobe Illustrator 22.1.0, SVG Export Plug-In . SVG Version: 6.00 Build 0) --> <svg xmlns="http://www.w3.org/2000/svg" xmlns:xlink="http://www.w3.org/1999/xlink" id="Layer_1" x="0px" y="0px" viewBox="0 0 127.6 127.6" style="enable-background:new 0 0 127.6 127.6;" xml:space="preserve"> <style type="text/css"> .st0{fill:#F7B702;} </style> <g> <path class="st0" d="M63.8,98.1c-19,0-34.4-15.4-34.4-34.4c0-19,15.4-34.4,34.4-34.4c19,0,34.4,15.4,34.4,34.4 C98.1,82.7,82.7,98.1,63.8,98.1z M63.8,30.4c-18.4,0-33.4,15-33.4,33.4s15,33.4,33.4,33.4s33.4-15,33.4-33.4S82.2,30.4,63.8,30.4z"></path> </g> <g> <path class="st0" d="M63.8,101.1c-20.6,0-37.3-16.7-37.3-37.3s16.7-37.3,37.3-37.3s37.3,16.7,37.3,37.3S84.3,101.1,63.8,101.1z M63.8,27.5c-20,0-36.3,16.3-36.3,36.3c0,20,16.3,36.3,36.3,36.3c20,0,36.3-16.3,36.3-36.3C100.1,43.8,83.8,27.5,63.8,27.5z"></path> </g> <g> <path class="st0" d="M47,24.1c0.5,1,0,2-1,2.4l-2.3,1.1l-2.6-5.4l2.1-1c0.9-0.5,2-0.2,2.4,0.7c0.2,0.4,0.2,0.9,0,1.3 C46.2,23.2,46.7,23.5,47,24.1z M42.9,22.8l0.5,1l0.9-0.4c0.3-0.1,0.4-0.4,0.2-0.7s-0.4-0.4-0.7-0.2L42.9,22.8z M45.7,24.6 c-0.1-0.3-0.5-0.4-0.8-0.3l-1,0.5l0.5,1l1-0.5C45.8,25.2,45.8,24.9,45.7,24.6z"></path> <path class="st0" d="M47.6,19.4l2.1,5.6l-1.3,0.5l-2.1-5.6L47.6,19.4z"></path> <path class="st0" d="M49.7,21.7c-0.4-1.7,0.6-3.4,2.2-3.8c1.7-0.4,3.3,0.5,3.8,2.2c0.4,1.7-0.6,3.4-2.2,3.8 C51.9,24.3,50.2,23.4,49.7,21.7z M54.4,20.4c-0.3-1-1.2-1.5-2.1-1.3c-0.9,0.2-1.5,1.1-1.2,2.2c0.3,1,1.2,1.5,2.1,1.3 C54.1,22.4,54.7,21.5,54.4,20.4z"></path> <path class="st0" d="M61.4,16.5l0.6,5.9l-1,0.1l-2.6-3l0.3,3.2l-1.4,0.1L56.7,17l1-0.1l2.6,3L60,16.6L61.4,16.5z"></path> <path class="st0" d="M66.8,21.2l0,1.3L63,22.4l0.1-6l3.7,0.1l0,1.3l-2.3-0.1l0,1l2.1,0.1l0,1.3l-2.1-0.1l0,1.1L66.8,21.2z"></path> <path class="st0" d="M69.9,20.9l-0.6-0.1l-0.3,1.9l-1.4-0.2l0.9-5.9l2.4,0.3c1.1,0.2,1.9,1.2,1.7,2.3c-0.1,0.7-0.6,1.3-1.3,1.6 l0.9,2.4l-1.5-0.2L69.9,20.9z M69.4,19.7l1,0.1c0.4,0.1,0.7-0.2,0.8-0.7c0.1-0.4-0.2-0.8-0.6-0.9l-1-0.1L69.4,19.7z"></path> <path class="st0" d="M75.6,18l-1.4,5.8l-1.3-0.3l1.4-5.8L75.6,18z"></path> <path class="st0" d="M76,21.1c0.6-1.7,2.3-2.5,4-1.9c1,0.4,1.7,1.2,1.9,2.2l-1.3,0.2c-0.1-0.5-0.5-1-1.1-1.2 c-1-0.4-1.9,0.1-2.2,1.1c-0.4,1,0,1.9,1,2.3c0.6,0.2,1.2,0.1,1.5-0.2l0.9,1c-0.8,0.6-1.8,0.8-2.9,0.4C76.2,24.5,75.4,22.8,76,21.1z "></path> <path class="st0" d="M84.5,26.9l-2-1l-0.7,0.7l-1.3-0.7l4.6-4.3l1.5,0.8l-1,6.2l-1.3-0.7L84.5,26.9z M84.7,25.6l0.4-2.3L83.5,25 L84.7,25.6z"></path> <path class="st0" d="M88.3,29.7c0.3-0.4,0.8-0.4,1.1-0.2c0.4,0.3,0.4,0.8,0.2,1.1c-0.3,0.4-0.8,0.4-1.1,0.2S88,30,88.3,29.7z"></path> <path class="st0" d="M97.8,32.8l-1.1-1.1L93.4,35l-1-1l3.3-3.3l-1.1-1.1l0.9-0.9l3.1,3.1L97.8,32.8z"></path> <path class="st0" d="M97.6,38.4l-1.4-1.7L95.3,37l-0.9-1.2l5.9-2.1l1.1,1.4L98,40.4L97,39.2L97.6,38.4z M98.3,37.3l1.3-1.9 l-2.2,0.8L98.3,37.3z"></path> <path class="st0" d="M99.2,39.8l1.2,0.7c-0.3,0.4-0.4,0.9-0.1,1.5c0.3,0.6,0.6,0.6,0.8,0.4c0.3-0.2,0.3-0.6,0-1.5 c-0.2-0.9-0.3-1.9,0.7-2.4c1-0.6,2.1-0.1,2.6,0.8c0.5,0.8,0.5,1.7,0,2.6l-1.2-0.6c0.3-0.4,0.3-0.8,0.1-1.2 c-0.2-0.4-0.5-0.4-0.7-0.3c-0.2,0.1-0.3,0.4-0.1,1.3c0.2,0.9,0.5,1.9-0.6,2.6c-1,0.6-2,0.2-2.7-1C98.5,41.6,98.6,40.6,99.2,39.8z"></path> <path class="st0" d="M106.5,46.8l-0.6-1.4l-4.3,1.9l-0.6-1.3l4.3-1.9l-0.6-1.4l1.2-0.5l1.8,4.1L106.5,46.8z"></path> <path class="st0" d="M104.9,52.4l-1.2,0.4l-1.2-3.6l5.7-1.9l1.2,3.5l-1.2,0.4l-0.7-2.2l-0.9,0.3l0.7,2l-1.2,0.4l-0.7-2l-1,0.3 L104.9,52.4z"></path> <path class="st0" d="M107.3,55.2c1.7-0.2,3.3,1,3.5,2.7s-1,3.3-2.7,3.5c-1.7,0.2-3.3-1-3.5-2.7C104.4,57,105.6,55.4,107.3,55.2z M107.9,60c1.1-0.1,1.7-1,1.5-1.9c-0.1-1-0.9-1.6-2-1.5c-1.1,0.1-1.7,1-1.5,1.9C106.1,59.5,106.9,60.1,107.9,60z"></path> <path class="st0" d="M109.7,63.9l-1.2,0l0,2.2l-1.3,0l0-2.2l-2.2,0l0-1.4l6,0.1l0,3.6l-1.3,0L109.7,63.9z"></path> <path class="st0" d="M109.8,75l-5.9-1.1l0.2-1l3.6-1.7l-3.2-0.6l0.3-1.3l5.9,1.1l-0.2,1l-3.6,1.7l3.2,0.6L109.8,75z"></path> <path class="st0" d="M103.4,78.5l0.7-2.1l-0.8-0.6l0.5-1.4l5,3.9l-0.6,1.6l-6.3,0l0.5-1.4L103.4,78.5z M104.7,78.5l2.3,0l-1.8-1.4 L104.7,78.5z"></path> <path class="st0" d="M104.3,85.6l0.7-1.4l-4.2-2l0.6-1.2l4.2,2l0.7-1.4l1.2,0.6l-1.9,4L104.3,85.6z"></path> <path class="st0" d="M101.4,85.2l3.4,2.2l-0.7,1.2l-3.3-2.1c-0.4-0.2-0.8-0.3-1.2,0.3c-0.4,0.6-0.2,1,0.2,1.2l3.3,2.1l-0.7,1.2 l-3.4-2.2c-1.1-0.7-1.2-1.9-0.5-3C99.2,84.9,100.3,84.5,101.4,85.2z"></path> <path class="st0" d="M96.9,91.6l0.4-0.5l-1.5-1.3l0.9-1l4.6,3.9l-1.5,1.8c-0.7,0.9-2,1-2.9,0.2c-0.6-0.5-0.8-1.2-0.6-2l-2.5-0.4 l0.9-1.1L96.9,91.6z M98.2,91.9l-0.7,0.8c-0.2,0.3-0.2,0.7,0.1,1c0.3,0.3,0.8,0.3,1,0l0.7-0.8L98.2,91.9z"></path> <path class="st0" d="M91.3,96.4l-0.9-1l2.8-2.6l4.1,4.4l-2.7,2.5l-0.9-1l1.7-1.6l-0.7-0.7l-1.6,1.5L92.3,97l1.6-1.5l-0.7-0.8 L91.3,96.4z"></path> <path class="st0" d="M88.4,97.8c0.3,0.4,0.2,0.9-0.2,1.1c-0.4,0.3-0.9,0.2-1.1-0.2c-0.3-0.4-0.2-0.9,0.2-1.1 C87.7,97.3,88.2,97.4,88.4,97.8z"></path> <path class="st0" d="M80.8,103.4c-0.5-0.9,0-1.9,1-2.4l2.2-1.1l2.7,5.3l-2.1,1c-0.9,0.5-2,0.2-2.4-0.7c-0.2-0.4-0.2-0.9-0.1-1.3 C81.5,104.3,81,104,80.8,103.4z M82,102.9c0.1,0.3,0.5,0.4,0.8,0.3l1-0.5l-0.5-1l-1,0.5C82,102.3,81.9,102.6,82,102.9z M84.8,104.7 l-0.5-0.9l-0.9,0.4c-0.3,0.1-0.4,0.4-0.2,0.7c0.1,0.3,0.4,0.4,0.7,0.2L84.8,104.7z"></path> <path class="st0" d="M80.1,108.2l-2.1-5.6l1.3-0.5l2.1,5.6L80.1,108.2z"></path> <path class="st0" d="M78,105.9c0.4,1.7-0.6,3.4-2.2,3.8s-3.4-0.5-3.8-2.2c-0.4-1.7,0.6-3.4,2.2-3.8C75.9,103.2,77.5,104.2,78,105.9 z M73.3,107.1c0.3,1,1.2,1.5,2.1,1.3s1.5-1.1,1.2-2.2c-0.3-1-1.2-1.5-2.1-1.3C73.6,105.2,73,106.1,73.3,107.1z"></path> <path class="st0" d="M66.4,111.1l-0.6-5.9l1-0.1l2.6,3l-0.3-3.2l1.4-0.1l0.6,5.9l-1,0.1l-2.6-3l0.3,3.2L66.4,111.1z"></path> <path class="st0" d="M60.9,106.4l0-1.3l3.8,0.1l-0.1,6l-3.7-0.1l0-1.3l2.3,0l0-1l-2.1,0l0-1.3l2.1,0l0-1.1L60.9,106.4z"></path> <path class="st0" d="M57.9,106.7l0.6,0.1l0.3-1.9l1.4,0.2l-0.8,5.9l-2.4-0.3c-1.1-0.2-1.9-1.2-1.7-2.3c0.1-0.7,0.6-1.3,1.3-1.6 l-1-2.4l1.5,0.2L57.9,106.7z M58.3,107.9l-1-0.1c-0.4-0.1-0.7,0.2-0.8,0.7c-0.1,0.4,0.2,0.8,0.6,0.9l1,0.1L58.3,107.9z"></path> <path class="st0" d="M52.1,109.6l1.4-5.8l1.3,0.3l-1.4,5.8L52.1,109.6z"></path> <path class="st0" d="M51.7,106.5c-0.6,1.7-2.3,2.5-4,1.9c-1-0.4-1.7-1.2-2-2.2l1.3-0.3c0.1,0.5,0.5,1,1.1,1.2 c1,0.4,1.9-0.1,2.2-1.1c0.4-1-0.1-1.9-1.1-2.3c-0.6-0.2-1.2-0.1-1.6,0.2l-0.9-1c0.8-0.6,1.8-0.8,2.9-0.5 C51.5,103.1,52.3,104.8,51.7,106.5z"></path> <path class="st0" d="M43.2,100.7l2,1l0.7-0.7l1.3,0.7l-4.6,4.4l-1.5-0.8l1-6.2l1.3,0.7L43.2,100.7z M43,102.1l-0.4,2.3l1.6-1.6 L43,102.1z"></path> <path class="st0" d="M39.4,98c-0.3,0.4-0.8,0.4-1.1,0.2s-0.4-0.8-0.2-1.1c0.3-0.4,0.8-0.4,1.1-0.2C39.6,97.2,39.7,97.7,39.4,98z"></path> <path class="st0" d="M29.9,94.9L31,96l3.3-3.3l1,1L31.9,97l1.1,1.1L32.1,99L29,95.9L29.9,94.9z"></path> <path class="st0" d="M30.1,89.3l1.4,1.7l0.9-0.4l0.9,1.2L27.4,94l-1.1-1.4l3.4-5.3l0.9,1.2L30.1,89.3z M29.3,90.4l-1.3,1.9l2.2-0.8 L29.3,90.4z"></path> <path class="st0" d="M28.5,87.9l-1.2-0.7c0.3-0.4,0.4-0.9,0.1-1.5c-0.3-0.6-0.6-0.6-0.8-0.4c-0.3,0.2-0.3,0.6,0,1.5 c0.2,0.9,0.3,1.9-0.6,2.4c-1,0.6-2.1,0.1-2.6-0.8c-0.5-0.8-0.5-1.7,0-2.6l1.2,0.6c-0.3,0.4-0.3,0.8-0.1,1.2 c0.2,0.4,0.5,0.4,0.7,0.3c0.2-0.1,0.3-0.4,0.1-1.3c-0.2-0.9-0.5-1.9,0.6-2.6c1-0.6,2-0.2,2.7,0.9C29.2,86.2,29.1,87.1,28.5,87.9z"></path> <path class="st0" d="M21.1,81l0.6,1.4l4.3-1.9l0.6,1.2l-4.3,1.9l0.6,1.4l-1.2,0.5l-1.8-4.1L21.1,81z"></path> <path class="st0" d="M22.7,75.3l1.2-0.4l1.2,3.6l-5.7,1.9l-1.2-3.5l1.2-0.4l0.7,2.2l0.9-0.3l-0.7-2l1.2-0.4l0.7,2l1-0.3L22.7,75.3z "></path> <path class="st0" d="M20.2,72.6c-1.7,0.2-3.3-1-3.5-2.7s0.9-3.3,2.7-3.5c1.7-0.2,3.3,1,3.5,2.7S22,72.4,20.2,72.6z M19.6,67.8 c-1.1,0.1-1.7,1-1.5,2c0.1,1,0.9,1.6,2,1.5c1.1-0.1,1.7-1,1.5-2S20.7,67.7,19.6,67.8z"></path> <path class="st0" d="M17.8,63.8l1.2,0l0-2.2l1.3,0l0,2.2l2.2,0l0,1.4l-6,0l0-3.6l1.3,0L17.8,63.8z"></path> <path class="st0" d="M17.7,52.8l5.9,1.1l-0.2,1l-3.6,1.7l3.2,0.6l-0.3,1.3l-5.9-1.1l0.2-1l3.6-1.7l-3.2-0.6L17.7,52.8z"></path> <path class="st0" d="M24.1,49.3l-0.7,2.1l0.8,0.6l-0.5,1.4l-5-3.8l0.6-1.7l6.3,0l-0.5,1.4L24.1,49.3z M22.7,49.2l-2.3,0l1.9,1.4 L22.7,49.2z"></path> <path class="st0" d="M23.2,42.1l-0.7,1.4l4.2,2l-0.6,1.2l-4.2-2l-0.7,1.4l-1.2-0.6l1.9-4L23.2,42.1z"></path> <path class="st0" d="M26,42.6l-3.4-2.2l0.7-1.2l3.3,2.1c0.4,0.2,0.8,0.3,1.2-0.3c0.4-0.6,0.2-1-0.2-1.2l-3.3-2.1l0.7-1.2l3.4,2.2 c1.1,0.7,1.2,1.9,0.5,3C28.3,42.8,27.1,43.3,26,42.6z"></path> <path class="st0" d="M30.5,36.1l-0.4,0.5l1.5,1.3l-0.9,1l-4.6-3.8l1.5-1.8c0.7-0.9,2-1,2.9-0.3c0.6,0.5,0.8,1.2,0.6,2l2.5,0.4 l-0.9,1.1L30.5,36.1z M29.2,35.8l0.7-0.8c0.2-0.3,0.2-0.7-0.2-1c-0.3-0.3-0.8-0.3-1,0L28,34.8L29.2,35.8z"></path> <path class="st0" d="M36,31.3l0.9,1l-2.7,2.6l-4.1-4.4l2.7-2.5l0.9,1L32,30.5l0.7,0.7l1.6-1.5l0.9,0.9l-1.6,1.5l0.7,0.8L36,31.3z"></path> <path class="st0" d="M38.9,29.9c-0.3-0.4-0.2-0.9,0.2-1.1c0.4-0.3,0.9-0.2,1.1,0.2c0.3,0.4,0.2,0.9-0.2,1.1 C39.7,30.4,39.2,30.3,38.9,29.9z"></path> </g> <g> <path class="st0" d="M63.8,117.2c-29.5,0-53.5-24-53.5-53.5c0-29.5,24-53.5,53.5-53.5c29.5,0,53.5,24,53.5,53.5 C117.2,93.3,93.3,117.2,63.8,117.2z M63.8,11.3c-28.9,0-52.5,23.5-52.5,52.5s23.5,52.5,52.5,52.5s52.5-23.5,52.5-52.5 S92.7,11.3,63.8,11.3z"></path> </g> <g> <path class="st0" d="M63.8,120.6C32.5,120.6,7,95.1,7,63.8S32.5,7,63.8,7s56.8,25.5,56.8,56.8S95.1,120.6,63.8,120.6z M63.8,9 C33.6,9,9,33.6,9,63.8c0,30.2,24.6,54.8,54.8,54.8c30.2,0,54.8-24.6,54.8-54.8C118.6,33.6,94,9,63.8,9z"></path> </g> </svg> 