<?xml version="1.0" encoding="UTF-8"?> <!-- Generator: Adobe Illustrator 22.1.0, SVG Export Plug-In . SVG Version: 6.00 Build 0) --> <svg xmlns="http://www.w3.org/2000/svg" xmlns:xlink="http://www.w3.org/1999/xlink" id="Layer_1" x="0px" y="0px" viewBox="0 0 50 50" style="enable-background:new 0 0 50 50;" xml:space="preserve"> <style type="text/css"> .st0{fill:#FFFFFF;} </style> <g> <path class="st0" d="M30.9,7.6c0.2,1.7-5.5,3.7-6.1,3.3l0,0c0.2-0.2,0.2-0.6,0-0.8S24.2,9.8,24,10c-0.3,0.2-0.3,0.6-0.1,0.9 c0.1,0.1,0.2,0.2,0.3,0.2c0,0,0.1,0,0.1,0.1c0,0.8,1.9,3.8,6.3,3.1c0.1,0,0.1,0.1,0.1,0.2c-1.6,2.4-5.8,3.1-8.9,1 c-3.2-2.2-3.7-6.6-2.5-8.2c0.1-0.1,0.2-0.1,0.2,0c0.2,0.7,0.2,1.1,0.6,1.9c0,0.1,0.1,0,0.1,0c-0.4-1.6,0-3.5,1.3-4.9 c0.3-0.3,0.6-0.6,0.9-0.8c0.1-0.1,0.2,0,0.1,0.1C22.2,4.4,22,5.2,22.1,6c0,0.1,0.1,0.1,0.2,0c0.7-1.4,1.9-2.7,3.6-3.1 c0.4-0.1,0.8-0.1,1.2-0.1c0.1,0,0.1,0.1,0.1,0.2c-0.7,0.4-1.2,1.1-1.5,1.8c0,0.1,0,0.2,0.1,0.1c1.4-0.7,3.1-0.8,4.7-0.1 c0.4,0.2,0.7,0.4,1.1,0.6c0.1,0.1,0,0.2-0.1,0.2c-0.6-0.1-1.7,0-2.2,0.3C28.5,6.1,30.5,6.1,30.9,7.6z"></path> <circle class="st0" cx="27.3" cy="11.7" r="0.5"></circle> </g> <g> <path class="st0" d="M30.9,7.9c0.2,1.7-5.5,3.7-6.1,3.3l0,0c0.2-0.2,0.2-0.6,0-0.8s-0.6-0.3-0.8-0.1c-0.3,0.2-0.3,0.6-0.1,0.9 c0.1,0.1,0.2,0.2,0.3,0.2c0,0,0.1,0,0.1,0.1c0,0.8,1.9,3.8,6.3,3.1c0.1,0,0.1,0.1,0.1,0.2c-1.6,2.4-5.8,3.1-8.9,1 c-3.2-2.2-3.7-6.6-2.5-8.2c0.1-0.1,0.2-0.1,0.2,0c0.2,0.7,0.2,1.1,0.6,1.9c0,0.1,0.1,0,0.1,0c-0.4-1.6,0-3.5,1.3-4.9 c0.3-0.3,0.6-0.6,0.9-0.8c0.1-0.1,0.2,0,0.1,0.1c-0.3,0.8-0.5,1.6-0.4,2.4c0,0.1,0.1,0.1,0.2,0c0.7-1.4,1.9-2.7,3.6-3.1 c0.4-0.1,0.8-0.1,1.2-0.1c0.1,0,0.1,0.1,0.1,0.2c-0.7,0.4-1.2,1.1-1.5,1.8c0,0.1,0,0.2,0.1,0.1c1.4-0.7,3.1-0.8,4.7-0.1 c0.4,0.2,0.7,0.4,1.1,0.6c0.1,0.1,0,0.2-0.1,0.2c-0.6-0.1-1.7,0-2.2,0.3C28.5,6.4,30.5,6.4,30.9,7.9z"></path> <circle class="st0" cx="27.3" cy="12" r="0.5"></circle> </g> </svg> 