<?xml version="1.0" encoding="UTF-8"?> <!-- Generator: Adobe Illustrator 22.1.0, SVG Export Plug-In . SVG Version: 6.00 Build 0) --> <svg xmlns="http://www.w3.org/2000/svg" xmlns:xlink="http://www.w3.org/1999/xlink" id="Layer_1" x="0px" y="0px" viewBox="0 0 50 50" style="enable-background:new 0 0 50 50;" xml:space="preserve"> <style type="text/css"> .st0{fill:none;stroke:#000000;stroke-linecap:round;stroke-linejoin:round;stroke-miterlimit:10;} </style> <g> </g> <g> <g> <rect x="11.2" y="6.8" class="st0" width="27.8" height="5.2"></rect> <rect x="11.2" y="38" class="st0" width="27.8" height="5.2"></rect> <path class="st0" d="M11.2,12c0,0-5.8,10.7,0,26"></path> <path class="st0" d="M38.8,12c0,0,5.8,10.7,0,26"></path> <line class="st0" x1="13.1" y1="8.4" x2="13.1" y2="10.4"></line> <line class="st0" x1="13.1" y1="8.4" x2="13.1" y2="10.4"></line> <line class="st0" x1="15.3" y1="8.4" x2="15.3" y2="10.4"></line> <line class="st0" x1="17.4" y1="8.4" x2="17.4" y2="10.4"></line> <line class="st0" x1="19.6" y1="8.4" x2="19.6" y2="10.4"></line> <line class="st0" x1="21.8" y1="8.4" x2="21.8" y2="10.4"></line> <line class="st0" x1="24" y1="8.4" x2="24" y2="10.4"></line> <line class="st0" x1="26.1" y1="8.4" x2="26.1" y2="10.4"></line> <line class="st0" x1="28.3" y1="8.4" x2="28.3" y2="10.4"></line> <line class="st0" x1="30.5" y1="8.4" x2="30.5" y2="10.4"></line> <line class="st0" x1="32.7" y1="8.4" x2="32.7" y2="10.4"></line> <line class="st0" x1="34.8" y1="8.4" x2="34.8" y2="10.4"></line> <line class="st0" x1="37" y1="8.4" x2="37" y2="10.4"></line> <line class="st0" x1="13" y1="39.5" x2="13" y2="41.6"></line> <line class="st0" x1="13" y1="39.5" x2="13" y2="41.6"></line> <line class="st0" x1="15.2" y1="39.5" x2="15.2" y2="41.6"></line> <line class="st0" x1="17.4" y1="39.5" x2="17.4" y2="41.6"></line> <line class="st0" x1="19.5" y1="39.5" x2="19.5" y2="41.6"></line> <line class="st0" x1="21.7" y1="39.5" x2="21.7" y2="41.6"></line> <line class="st0" x1="23.9" y1="39.5" x2="23.9" y2="41.6"></line> <line class="st0" x1="26.1" y1="39.5" x2="26.1" y2="41.6"></line> <line class="st0" x1="28.2" y1="39.5" x2="28.2" y2="41.6"></line> <line class="st0" x1="30.4" y1="39.5" x2="30.4" y2="41.6"></line> <line class="st0" x1="32.6" y1="39.5" x2="32.6" y2="41.6"></line> <line class="st0" x1="34.8" y1="39.5" x2="34.8" y2="41.6"></line> <line class="st0" x1="36.9" y1="39.5" x2="36.9" y2="41.6"></line> </g> </g> </svg> 