<?xml version="1.0" encoding="UTF-8"?>
<!-- Generator: Adobe Illustrator 22.1.0, SVG Export Plug-In . SVG Version: 6.00 Build 0) -->
<svg xmlns="http://www.w3.org/2000/svg" xmlns:xlink="http://www.w3.org/1999/xlink" id="Layer_1" x="0px" y="0px" viewBox="0 0 30 30" style="enable-background:new 0 0 30 30;" xml:space="preserve"> <style type="text/css"> .st0{fill:#828282;} </style> <path class="st0" d="M13.7,6c1.1,0,2,0.9,2,2c0,0.1,0.1,0.1,0.1,0.1c0.1,0,0.1-0.1,0.1-0.1c0-1.1,0.9-2,2-2c0.2,0,0.2,0,0.2-0.1 s0-0.2-0.1-0.2c-1.1,0-2-0.9-2-2c0-0.1-0.1-0.1-0.1-0.1l-0.1,0.1c0,1.1-0.9,2-2,2c-0.1,0-0.1,0.1-0.1,0.1S13.6,6,13.7,6z M15.8,4.5 c0.2,0.6,0.7,1.1,1.4,1.4c-0.6,0.2-1.1,0.7-1.4,1.4c-0.2-0.6-0.7-1.1-1.4-1.4C15.1,5.7,15.6,5.2,15.8,4.5z M20.7,7.1 c0-0.1,0-0.2,0.1-0.2S21,6.9,21,7c0.1,0.1,0.2,0.3,0.4,0.4c0.1,0,0.1,0.1,0.1,0.2s-0.1,0.1-0.1,0.1s0,0-0.1,0 C21,7.5,20.9,7.3,20.7,7.1z M18.9,8.2c0.7,0,1.3,0.6,1.3,1.3c0,0.1,0.1,0.1,0.1,0.1c0.1,0,0.1-0.1,0.1-0.1c0-0.7,0.6-1.3,1.3-1.3 c0.1,0,0.1-0.1,0.1-0.1C21.8,8,21.7,8,21.7,8c-0.7,0-1.3-0.6-1.3-1.3c0-0.1-0.1-0.1-0.1-0.1c-0.1,0-0.1,0.1-0.1,0.1 c0,0.7-0.6,1.3-1.3,1.3c-0.1,0-0.1,0.1-0.1,0.1C18.8,8.1,18.8,8.2,18.9,8.2z M20.3,7.3c0.2,0.3,0.4,0.6,0.8,0.7 c-0.3,0.1-0.6,0.4-0.7,0.7C20.3,8.4,20,8.1,19.7,8C19.9,7.9,20.2,7.6,20.3,7.3z M17.3,11.5c0,0.1,0,0.2,0,0.2h-0.1 c0,0-0.1,0-0.1-0.1s-0.1-0.1-0.2-0.2c-0.1,0-0.1-0.1-0.1-0.2s0.1-0.1,0.2-0.1C17.1,11.3,17.2,11.4,17.3,11.5z M17.7,9.5 c-0.1,0-0.1,0.1-0.1,0.1c0,0.6-0.5,1-1,1c-0.1,0-0.1,0.1-0.1,0.1l0.1,0.1c0.6,0,1,0.5,1,1c0,0.1,0.1,0.1,0.1,0.1 c0.1,0,0.1-0.1,0.1-0.1c0-0.6,0.5-1,1-1c0.1,0,0.1-0.1,0.1-0.1l-0.1-0.1c-0.6,0-1-0.5-1-1C17.9,9.6,17.8,9.5,17.7,9.5z M18.3,10.8 c-0.2,0.1-0.4,0.3-0.6,0.6c-0.1-0.2-0.3-0.4-0.6-0.6c0.2-0.1,0.4-0.3,0.6-0.6C17.8,10.5,18,10.7,18.3,10.8z M14.2,5.4 c0-0.1,0-0.2,0.1-0.2c0.4-0.2,0.7-0.5,0.8-1c0-0.1,0.1-0.1,0.2-0.1c0.1,0,0.1,0.1,0.1,0.2c-0.2,0.5-0.5,0.9-1,1.1 C14.4,5.4,14.4,5.4,14.2,5.4L14.2,5.4z"/> <g> <path class="st0" d="M21.7,14.3c0.2,0.7-0.5,1.5-1.3,1.5l-2.1,0L13.9,16c-1.4,0.1-2.9,0.2-4.3,0.2l-0.3,0c-0.1,0-0.3,0-0.4,0 c-0.3-0.1-0.5-0.2-0.7-0.4c-0.4-0.3-0.7-0.9-0.7-1.4c0-0.3,0.1-0.4,0.1-0.6c0-0.2,0.1-0.4,0.1-0.6c0.1-0.4,0.3-0.7,0.4-1.1 c0.7-1.4,1.9-2.6,3.2-3.3c1.4-0.7,3-0.9,4.5-0.6C19,8.9,21.2,11.4,21.7,14.3z M21.6,14.3c-0.3-1.4-1-2.7-2-3.7 c-1-1-2.3-1.7-3.7-1.9c-2.8-0.5-5.8,1.2-7,3.8c-0.3,0.6-0.5,1.3-0.6,2c0,0.7,0.7,1.3,1.4,1.2l4.3,0l4.3,0l2.1,0 C21.1,15.7,21.7,15,21.6,14.3z"/> </g> <g> <path class="st0" d="M17.2,15.7c0,0.9,0.4,1.7,0.8,2.5c0.4,0.8,0.7,1.7,0.7,2.7c-0.1,1.9-1.8,3.6-3.8,3.6c-2,0-3.7-1.6-3.8-3.5 c-0.1-0.9,0.2-1.9,0.6-2.7c0.4-0.8,0.7-1.7,0.7-2.6c0.2,1.9-1.2,3.5-0.9,5.2c0.1,0.8,0.5,1.7,1.1,2.2c0.6,0.6,1.5,0.9,2.3,0.9 c0.8,0,1.7-0.3,2.3-0.9c0.6-0.6,1-1.4,1.1-2.2C18.6,19.1,17,17.5,17.2,15.7z"/> </g> <g> <path class="st0" d="M17.2,20.6c0.2,0.5,0,1.1-0.4,1.5c-0.4,0.4-1,0.6-1.5,0.4C16.3,22.2,16.8,21.6,17.2,20.6z"/> </g> </svg>