<?xml version="1.0" encoding="UTF-8"?>
<!-- Generator: Adobe Illustrator 22.1.0, SVG Export Plug-In . SVG Version: 6.00 Build 0) -->
<svg xmlns="http://www.w3.org/2000/svg" xmlns:xlink="http://www.w3.org/1999/xlink" id="Layer_1" x="0px" y="0px" viewBox="0 0 30 30" style="enable-background:new 0 0 30 30;" xml:space="preserve"> <style type="text/css"> .st0{fill:none;stroke:#828282;stroke-width:0.5;stroke-linecap:round;stroke-linejoin:round;stroke-miterlimit:10;} </style> <g> <g> <line class="st0" x1="12.8" y1="7.5" x2="15" y2="9.9"/> <line class="st0" x1="17.2" y1="7.5" x2="15" y2="9.9"/> </g> <g> <line class="st0" x1="15" y1="3.8" x2="15" y2="26.2"/> <g> <line class="st0" x1="17.2" y1="22.4" x2="15" y2="19.9"/> <line class="st0" x1="12.8" y1="22.4" x2="15" y2="19.9"/> </g> <line class="st0" x1="23" y1="7" x2="7" y2="23"/> <g> <line class="st0" x1="18.8" y1="8.1" x2="18.6" y2="11.4"/> <line class="st0" x1="21.9" y1="11.2" x2="18.6" y2="11.4"/> </g> <g> <line class="st0" x1="11.3" y1="21.8" x2="11.5" y2="18.5"/> <line class="st0" x1="8.2" y1="18.7" x2="11.5" y2="18.5"/> </g> <line class="st0" x1="26.2" y1="15" x2="3.8" y2="15"/> <g> <line class="st0" x1="22.5" y1="12.8" x2="20.1" y2="15"/> <line class="st0" x1="22.5" y1="17.2" x2="20.1" y2="15"/> </g> <g> <line class="st0" x1="7.6" y1="17.2" x2="10.1" y2="15"/> <line class="st0" x1="7.6" y1="12.8" x2="10.1" y2="15"/> </g> <line class="st0" x1="23" y1="23" x2="7" y2="7"/> <g> <line class="st0" x1="21.9" y1="18.8" x2="18.6" y2="18.6"/> <line class="st0" x1="18.8" y1="21.9" x2="18.6" y2="18.6"/> </g> <g> <line class="st0" x1="8.2" y1="11.3" x2="11.5" y2="11.5"/> <line class="st0" x1="11.3" y1="8.2" x2="11.5" y2="11.5"/> </g> </g> </g> </svg>